<svg width="50" height="51" viewBox="0 0 50 51" fill="none" xmlns="http://www.w3.org/2000/svg">
<path d="M37.5 37.5638C44.4036 30.6603 44.4036 19.4674 37.5 12.5638C30.5964 5.66028 19.4036 5.66028 12.5 12.5638C5.59644 19.4674 5.59644 30.6603 12.5 37.5638C19.4036 44.4674 30.5964 44.4674 37.5 37.5638Z" fill="#FF0040"/>
<path d="M24.9909 43.1171C15.0169 43.1171 6.94092 35.0039 6.94092 25.0671C6.94092 15.0931 15.0541 7.01709 24.9909 7.01709C34.9649 7.01709 43.0409 15.1303 43.0409 25.0671C43.0409 35.0039 34.9649 43.1171 24.9909 43.1171ZM24.9909 7.7242C15.4635 7.7242 7.68525 15.5025 7.68525 25.0299C7.68525 34.5573 15.4635 42.3356 24.9909 42.3356C34.5183 42.3356 42.2966 34.5573 42.2966 25.0299C42.2966 15.5025 34.5556 7.7242 24.9909 7.7242Z" fill="white"/>
<path d="M23.1675 44.8291C14.7565 44.8291 7.35045 38.8744 5.60128 30.6496C5.56406 30.5007 5.67571 30.3519 5.82458 30.3146C5.97344 30.2774 6.12231 30.3891 6.15952 30.5379C7.87148 38.5023 15.0171 44.308 23.1675 44.308C25.0283 44.308 26.8147 44.0103 28.5639 43.4521C28.7127 43.4149 28.8616 43.4893 28.8988 43.6381C28.936 43.787 28.8616 43.9359 28.7127 43.9731C26.9636 44.5313 25.0655 44.8291 23.1675 44.8291ZM35.0023 40.2887C34.9279 40.2887 34.8535 40.2514 34.779 40.2142C34.6674 40.1026 34.6674 39.9165 34.8162 39.8048C38.4635 36.4926 40.5848 31.8033 40.5848 26.8907V26.8163C40.5848 26.6674 40.6964 26.5186 40.8453 26.5186C40.9942 26.5186 41.1058 26.6302 41.143 26.7791V26.8535C41.143 31.9149 38.9845 36.7903 35.2256 40.2142C35.1512 40.2514 35.0768 40.2887 35.0023 40.2887ZM5.48963 27.1512C5.34076 27.1512 5.19189 27.0396 5.19189 26.8907V26.8535C5.19189 21.7921 7.35045 16.9539 11.1093 13.53C11.221 13.4183 11.4071 13.4183 11.5187 13.5672C11.6304 13.6789 11.6304 13.8649 11.4815 13.9766C7.83427 17.2889 5.75014 21.9781 5.75014 26.8907C5.78736 27.0396 5.63849 27.1512 5.48963 27.1512ZM40.4731 23.3924C40.3615 23.3924 40.2126 23.3179 40.2126 23.1691C38.5007 15.2047 31.3551 9.43618 23.2047 9.43618C21.3439 9.43618 19.5203 9.73391 17.7711 10.2922C17.6222 10.3294 17.4733 10.2549 17.4361 10.1061C17.3989 9.95721 17.4733 9.80834 17.6222 9.77113C19.4086 9.17566 21.3066 8.87793 23.2419 8.87793C31.6528 8.87793 39.0217 14.8326 40.8081 23.0202C40.8453 23.1691 40.7337 23.3179 40.5848 23.3552C40.5104 23.3924 40.4731 23.3924 40.4731 23.3924Z" fill="black"/>
<path d="M21.3064 34.5946L13.7515 27.0769L16.4683 24.3601L21.3064 29.1982L33.4762 16.9912L36.193 19.708L21.3064 34.5946Z" fill="white"/>
<path d="M21.3068 35.2644L13.1191 27.0768L16.4686 23.7273L21.3068 28.5654L33.4766 16.3956L36.8261 19.7451L21.3068 35.2644ZM14.4217 27.0768L21.3068 33.9618L35.5607 19.7079L33.4766 17.6238L21.3068 29.7936L16.4686 24.9554L14.4217 27.0768Z" fill="white"/>
</svg>
