<svg width="67" height="67" viewBox="0 0 67 67" fill="none" xmlns="http://www.w3.org/2000/svg">
<rect width="67" height="67" rx="5.85792" fill="#E6F5F7"/>
<g clip-path="url(#clip0)">
<path d="M24.1031 33.5H15.3773C13.9006 33.5 12.6924 32.2918 12.6924 30.8151V15.377C12.6924 13.9003 13.9006 12.6921 15.3773 12.6921H30.8153C32.292 12.6921 33.5002 13.9003 33.5002 15.377V25.4453" stroke="#05A18F" stroke-width="1.46448" stroke-miterlimit="10" stroke-linecap="round" stroke-linejoin="round"/>
<path d="M17.3909 16.7195H16.7197V20.7468C16.7197 22.2235 17.9279 24.1029 19.4046 24.1029C20.8813 24.1029 22.0895 22.2235 22.0895 20.7468V16.7195H21.4183" stroke="#05A18F" stroke-width="1.46448" stroke-miterlimit="10" stroke-linecap="round" stroke-linejoin="round"/>
<path d="M19.4048 24.1029V25.4454C19.4048 27.6772 21.2003 29.4727 23.4321 29.4727C25.6639 29.4727 27.4594 27.6772 27.4594 25.4454V23.4317" stroke="#05A18F" stroke-width="1.46448" stroke-miterlimit="10" stroke-linecap="round" stroke-linejoin="round"/>
<path d="M27.4595 23.4317C28.5716 23.4317 29.4731 22.5301 29.4731 21.418C29.4731 20.3059 28.5716 19.4044 27.4595 19.4044C26.3473 19.4044 25.4458 20.3059 25.4458 21.418C25.4458 22.5301 26.3473 23.4317 27.4595 23.4317Z" stroke="#05A18F" stroke-width="1.46448" stroke-miterlimit="10" stroke-linecap="round" stroke-linejoin="round"/>
<path d="M33.5 15.377C33.5 13.9003 34.7082 12.6921 36.1849 12.6921H51.623C53.0996 12.6921 54.3078 13.9003 54.3078 15.377V31.4863" stroke="#05A18F" stroke-width="1.46448" stroke-miterlimit="10" stroke-linecap="round" stroke-linejoin="round"/>
<path d="M38.1986 16.7195H37.5273V20.7468C37.5273 22.2235 38.7355 24.1029 40.2122 24.1029C41.6889 24.1029 42.8971 22.2235 42.8971 20.7468V16.7195H42.2259" stroke="#05A18F" stroke-width="1.46448" stroke-miterlimit="10" stroke-linecap="round" stroke-linejoin="round"/>
<path d="M40.2124 24.1029V25.4454C40.2124 27.6772 42.0079 29.4727 44.2397 29.4727C46.4715 29.4727 48.267 27.6772 48.267 25.4454V23.4317" stroke="#05A18F" stroke-width="1.46448" stroke-miterlimit="10" stroke-linecap="round" stroke-linejoin="round"/>
<path d="M48.2671 23.4317C49.3792 23.4317 50.2807 22.5301 50.2807 21.418C50.2807 20.3059 49.3792 19.4044 48.2671 19.4044C47.155 19.4044 46.2534 20.3059 46.2534 21.418C46.2534 22.5301 47.155 23.4317 48.2671 23.4317Z" stroke="#05A18F" stroke-width="1.46448" stroke-miterlimit="10" stroke-linecap="round" stroke-linejoin="round"/>
<path d="M31.4866 54.3078H15.3773C13.9006 54.3078 12.6924 53.0996 12.6924 51.623V36.1849C12.6924 34.7082 13.9006 33.5 15.3773 33.5" stroke="#05A18F" stroke-width="1.46448" stroke-miterlimit="10" stroke-linecap="round" stroke-linejoin="round"/>
<path d="M17.3909 37.5273H16.7197V41.5547C16.7197 43.0314 17.9279 44.9108 19.4046 44.9108C20.8813 44.9108 22.0895 43.0314 22.0895 41.5547V37.5273H21.4183" stroke="#05A18F" stroke-width="1.46448" stroke-miterlimit="10" stroke-linecap="round" stroke-linejoin="round"/>
<path d="M19.4048 44.9107V46.2532C19.4048 48.485 21.2003 50.2805 23.4321 50.2805C25.6639 50.2805 27.4594 48.485 27.4594 46.2532V44.2395" stroke="#05A18F" stroke-width="1.46448" stroke-miterlimit="10" stroke-linecap="round" stroke-linejoin="round"/>
<path d="M27.4595 44.2395C26.3519 44.2395 25.4458 43.3334 25.4458 42.2259C25.4458 41.1184 26.3519 40.2122 27.4595 40.2122" stroke="#05A18F" stroke-width="1.46448" stroke-miterlimit="10" stroke-linecap="round" stroke-linejoin="round"/>
<path d="M44.2396 54.3078L39.8767 53.0157C39.6753 52.9654 39.4907 52.8815 39.3061 52.7976C37.5274 51.8747 36.0004 50.3812 34.8928 48.7367L32.0737 44.4912C31.5032 43.6186 31.1004 42.8467 32.0066 42.2426C32.9127 41.6385 35.2956 42.1923 35.8829 43.0649L37.9469 46.1861L29.1539 32.8959C28.5834 32.0233 28.8519 30.8151 29.758 30.211C30.6642 29.6069 31.8891 29.8251 32.4597 30.6977L37.7455 38.702L36.8562 37.3427C36.2856 36.4701 36.5541 35.262 37.4603 34.6579C38.3664 34.0538 39.5914 34.2719 40.1619 35.1445L41.4876 37.1581L41.0009 36.4198C40.4304 35.5472 40.6989 34.339 41.605 33.7349C42.5112 33.1308 43.7362 33.349 44.3067 34.2216L45.6659 36.2856L45.1457 35.4969C44.5752 34.6243 44.8437 33.4161 45.7498 32.812C46.656 32.2079 47.881 32.426 48.4515 33.2986L51.3881 37.7455C52.8983 40.0108 53.7877 42.4944 54.3079 45.1625" stroke="#05A18F" stroke-width="1.46448" stroke-miterlimit="10" stroke-linecap="round" stroke-linejoin="round"/>
</g>
<defs>
<clipPath id="clip0">
<rect width="43.5683" height="43.5683" fill="white" transform="translate(11.7158 11.7158)"/>
</clipPath>
</defs>
</svg>
