<svg width="67" height="67" viewBox="0 0 67 67" fill="none" xmlns="http://www.w3.org/2000/svg">
<rect width="66.375" height="66.375" rx="5.7674" fill="#E6F5F7"/>
<g clip-path="url(#clip0)">
<path d="M53.3599 14.4897H13.0148C12.1987 14.4897 11.5347 15.1538 11.5347 15.9699V21.1797C11.5347 21.9999 12.8034 21.9999 12.8034 21.1797V15.9699C12.8034 15.8534 12.8982 15.7585 13.0148 15.7585H53.3599C53.4765 15.7585 53.5714 15.8534 53.5714 15.9699V46.9044C53.5714 47.021 53.4765 47.1159 53.3599 47.1159H45.2307V45.7959H51.6109C51.9614 45.7959 52.2453 45.5119 52.2453 45.1616V38.5187C52.2453 37.6985 50.9766 37.6985 50.9766 38.5187V44.5272H45.2307V41.7126C45.2513 41.7144 45.2721 41.7162 45.2917 41.7179C45.8183 41.7642 46.4732 41.8218 46.927 41.3672C47.3803 40.9131 47.3229 40.2574 47.2768 39.7305C47.2272 39.1651 47.2807 39.0103 47.7152 38.6491C48.8342 37.7187 48.855 36.7225 47.7152 35.775C47.2807 35.4135 47.2275 35.2589 47.2768 34.6934C47.401 33.2744 46.7382 32.579 45.2917 32.7061C44.7271 32.7557 44.5739 32.702 44.2139 32.2674C43.285 31.1458 42.2881 31.1251 41.3419 32.2674C40.9819 32.702 40.8288 32.7558 40.2642 32.7061C38.8442 32.5813 38.1523 33.2478 38.279 34.6934C38.3284 35.259 38.2752 35.4135 37.8406 35.775C36.7217 36.7053 36.7009 37.7017 37.8406 38.6491C38.2752 39.0106 38.3284 39.1652 38.279 39.7307C38.1458 41.2505 38.8716 41.8382 40.325 41.7127V44.5274H15.3982V18.3471H50.9766V35.1354C50.9766 35.9556 52.2453 35.9556 52.2453 35.1354V17.7127C52.2453 17.3624 51.9614 17.0783 51.6109 17.0783H14.7639C14.4135 17.0783 14.1295 17.3624 14.1295 17.7127V45.1616C14.1295 45.5119 14.4135 45.7959 14.7639 45.7959H40.325V47.1159H13.0148C12.8982 47.1159 12.8034 47.021 12.8034 46.9044V24.3937C12.8034 23.5735 11.5347 23.5735 11.5347 24.3937V46.9044C11.5347 47.7206 12.1987 48.3846 13.0148 48.3846H40.325V51.2561C40.4153 51.7775 40.716 51.9692 41.2269 51.8313L42.7778 51.1099L44.3288 51.8313C44.7125 52.0097 45.2307 51.7277 45.2307 51.2561V48.3846H53.3599C54.176 48.3846 54.8401 47.7206 54.8401 46.9044V15.9699C54.8401 15.1537 54.176 14.4897 53.3599 14.4897ZM40.153 40.454C39.518 40.5099 39.4872 40.4759 39.5427 39.8412C39.6279 38.8671 39.4039 38.2987 38.6515 37.6733C38.1368 37.2452 38.1369 37.1785 38.6515 36.7504C39.4039 36.125 39.628 35.5566 39.5427 34.5826C39.4872 33.9478 39.518 33.9142 40.153 33.9697C41.1272 34.0556 41.6948 33.8298 42.3188 33.0765C42.7452 32.5619 42.8104 32.5619 43.2368 33.0765C43.8609 33.8298 44.4283 34.0552 45.4025 33.9697C46.0377 33.9138 46.0684 33.9478 46.0129 34.5825C45.9276 35.5566 46.1517 36.1249 46.904 36.7503C47.4187 37.1784 47.4189 37.2453 46.9039 37.6733C46.1516 38.2988 45.9274 38.8669 46.0128 39.841C46.0685 40.4757 46.0376 40.5098 45.4026 40.454C45.0042 40.4189 44.5522 40.3792 44.1543 40.5445C43.7692 40.7044 43.4985 41.0311 43.2367 41.3472C43.1134 41.4961 42.8883 41.7678 42.7777 41.8165C42.6671 41.7678 42.442 41.4961 42.3187 41.3472C42.0569 41.0312 41.7863 40.7044 41.4011 40.5445C40.9905 40.4193 40.5745 40.3891 40.153 40.454ZM43.0454 49.8352C42.8757 49.7562 42.68 49.7562 42.5103 49.8352L41.5937 50.2615V42.4506C41.8947 42.7815 42.2661 43.0888 42.7778 43.0888C43.2895 43.0888 43.6609 42.7816 43.962 42.4507V50.2615L43.0454 49.8352Z" fill="#05A18F"/>
<path d="M19.7612 23.657H41.6293C42.4495 23.657 42.4495 22.3883 41.6293 22.3883H19.7612C18.9409 22.3883 18.9409 23.657 19.7612 23.657Z" fill="#05A18F"/>
<path d="M47.2477 26.8811C47.2477 26.5308 46.9638 26.2468 46.6134 26.2468H19.7611C18.941 26.2468 18.941 27.5155 19.7611 27.5155H46.6134C46.9638 27.5155 47.2477 27.2315 47.2477 26.8811Z" fill="#05A18F"/>
<path d="M35.6517 30.7394C35.6517 30.3891 35.3677 30.105 35.0173 30.105H19.7611C18.941 30.105 18.941 31.3738 19.7611 31.3738H35.0173C35.3677 31.3738 35.6517 31.0897 35.6517 30.7394Z" fill="#05A18F"/>
<path d="M27.3219 39.5817C26.976 39.5823 26.6301 39.5827 26.2843 39.583C25.6189 39.5835 25.2525 39.4061 25.1166 38.7005C24.9925 38.0564 24.0635 38.1385 23.8932 38.7005C23.8179 38.9494 23.4373 39.662 23.1048 39.6038C22.9286 39.5729 22.8516 39.3011 22.7865 39.1604C22.6597 38.8864 22.5674 38.5961 22.4883 38.3051C22.1543 37.0758 22.0877 35.7923 21.8788 34.5398C21.7577 33.8135 20.6506 34.0189 20.6327 34.7085C20.5759 36.9051 20.2168 39.0717 19.4347 41.1306C19.1445 41.8946 20.3705 42.225 20.6581 41.4679C20.9596 40.674 21.199 39.8611 21.3847 39.0361C21.4844 39.3367 21.6032 39.6316 21.7483 39.9184C22.1187 40.6505 22.8743 41.0837 23.6827 40.758C23.9712 40.6418 24.2344 40.4387 24.4585 40.1914C25.0587 40.8836 25.9516 40.8522 26.7846 40.8512C28.0404 40.8495 29.2962 40.8466 30.552 40.8431C31.3683 40.8408 31.3699 39.5721 30.552 39.5744C29.4753 39.5775 28.3986 39.5799 27.3219 39.5817Z" fill="#05A18F"/>
<path d="M42.778 39.6896C44.1442 39.6896 45.2558 38.5781 45.2558 37.2119C45.2558 35.8457 44.1442 34.7342 42.778 34.7342C41.4119 34.7342 40.3003 35.8458 40.3003 37.2119C40.3003 38.5781 41.4118 39.6896 42.778 39.6896ZM42.778 36.0029C43.4447 36.0029 43.9871 36.5453 43.9871 37.2119C43.9871 37.8785 43.4447 38.4209 42.778 38.4209C42.1113 38.4209 41.569 37.8786 41.569 37.2119C41.569 36.5452 42.1113 36.0029 42.778 36.0029Z" fill="#05A18F"/>
</g>
<defs>
<clipPath id="clip0">
<rect width="43.3054" height="43.3054" fill="white" transform="translate(11.5347 11.5348)"/>
</clipPath>
</defs>
</svg>
