<svg width="65" height="67" viewBox="0 0 65 67" fill="none" xmlns="http://www.w3.org/2000/svg">
<rect width="65" height="66.568" rx="6.84211" fill="#E6F5F7"/>
<path d="M13.6843 52.8838V46.847C13.6843 43.7895 15.4091 41.0455 18.1531 39.7127L27.0122 35.636L27.7962 32.5" stroke="#05A18F" stroke-width="1.71053" stroke-miterlimit="10" stroke-linecap="round" stroke-linejoin="round"/>
<path d="M51.3159 52.8838V46.847C51.3159 43.7895 49.5912 41.0455 46.8472 39.7127L37.9881 35.636L37.2041 32.5" stroke="#05A18F" stroke-width="1.71053" stroke-miterlimit="10" stroke-linecap="round" stroke-linejoin="round"/>
<path d="M35.4793 33.284C39.7128 31.4808 40.1832 27.6392 40.6536 23.8761C40.8888 21.8377 40.9672 19.6425 40.0264 17.761C39.164 16.0362 37.4393 14.8602 35.6361 14.233C34.6953 13.841 33.5977 13.6842 32.5001 13.6842C31.4025 13.6842 30.3049 13.841 29.3642 14.233C27.561 14.8602 25.9146 16.0362 24.9738 17.761C23.9546 19.6425 24.033 21.8377 24.3466 23.8761C24.817 27.6392 25.2874 31.4808 29.521 33.284" stroke="#05A18F" stroke-width="1.71053" stroke-miterlimit="10" stroke-linecap="round" stroke-linejoin="round"/>
<path d="M27.0122 35.636C27.0122 39.5559 32.5001 43.4759 32.5001 43.4759C32.5001 43.4759 37.9881 39.5559 37.9881 35.636" stroke="#05A18F" stroke-width="1.71053" stroke-miterlimit="10" stroke-linecap="round" stroke-linejoin="round"/>
<path d="M27.0122 35.636C22.3082 37.988 23.0922 43.4759 23.0922 43.4759" stroke="#05A18F" stroke-width="1.71053" stroke-miterlimit="10" stroke-linecap="round" stroke-linejoin="round"/>
<path d="M37.988 35.636C41.908 36.42 41.908 43.4759 41.908 43.4759V46.6119" stroke="#05A18F" stroke-width="1.71053" stroke-miterlimit="10" stroke-linecap="round" stroke-linejoin="round"/>
<path d="M20.7402 52.8838H18.3882V49.7478C18.3882 46.2983 20.505 43.4759 23.0921 43.4759C25.6793 43.4759 27.7961 46.2983 27.7961 49.7478V52.8838H25.4441" stroke="#05A18F" stroke-width="1.71053" stroke-miterlimit="10" stroke-linecap="round" stroke-linejoin="round"/>
<path d="M41.9079 51.3158C43.2068 51.3158 44.2599 50.2628 44.2599 48.9639C44.2599 47.6649 43.2068 46.6119 41.9079 46.6119C40.6089 46.6119 39.5559 47.6649 39.5559 48.9639C39.5559 50.2628 40.6089 51.3158 41.9079 51.3158Z" stroke="#05A18F" stroke-width="1.71053" stroke-miterlimit="10" stroke-linecap="round" stroke-linejoin="round"/>
</svg>
