<svg width="67" height="67" viewBox="0 0 67 67" fill="none" xmlns="http://www.w3.org/2000/svg">
<rect width="66.375" height="66.375" rx="6" fill="#E6F5F7"/>
<g clip-path="url(#clip0)">
<path d="M15.198 35.0643C14.5747 34.441 14.5747 33.4268 15.198 32.8038L30.4088 17.593C30.6513 17.3506 30.6513 16.9574 30.4088 16.7153C30.1663 16.4725 29.7732 16.4728 29.5311 16.7153L14.32 31.9261C13.213 33.033 13.213 34.8348 14.32 35.9421L18.1514 39.7731C18.2723 39.894 18.4313 39.9548 18.5901 39.9548C18.7491 39.9548 18.9079 39.8943 19.0291 39.7731C19.2716 39.5306 19.2716 39.1375 19.0291 38.8954L15.198 35.0643Z" fill="#05A18F"/>
<path d="M27.4006 24.2791L18.0075 33.6722C17.7651 33.9147 17.7651 34.3078 18.0075 34.5503C18.1288 34.6712 18.2875 34.732 18.4466 34.732C18.6053 34.732 18.7641 34.6715 18.8853 34.5503L28.2783 25.1572C28.5208 24.9147 28.5208 24.5216 28.2783 24.2791C28.0362 24.037 27.6431 24.037 27.4006 24.2791Z" fill="#05A18F"/>
<path d="M33.0807 23.2866C33.7241 23.2866 34.3674 23.0419 34.8572 22.5521L36.7362 20.6731C37.7158 19.6935 37.7158 18.0997 36.7362 17.1201C35.7566 16.1405 34.1628 16.1405 33.1832 17.1201L31.3042 18.9991C30.8296 19.4737 30.5684 20.1044 30.5684 20.7756C30.5684 21.4464 30.8296 22.0775 31.3042 22.5521C31.794 23.0419 32.4373 23.2866 33.0807 23.2866ZM32.1819 19.8768L34.0609 17.9978C34.5565 17.5022 35.3628 17.5022 35.8581 17.9978C36.3537 18.4934 36.3537 19.2997 35.8581 19.795L33.9791 21.674C33.4838 22.1696 32.6775 22.1696 32.1819 21.674C31.942 21.4341 31.8098 21.115 31.8098 20.7756C31.8098 20.4361 31.942 20.1167 32.1819 19.8768Z" fill="#05A18F"/>
<path d="M50.169 32.6538H44.1938L48.7976 28.05C49.9049 26.9428 49.9049 25.141 48.7976 24.0337L37.5126 12.7491C36.9763 12.2127 36.2631 11.9172 35.5046 11.9172C34.7462 11.9172 34.033 12.2127 33.4963 12.7491L31.285 14.9604C31.0428 15.2029 31.0428 15.5957 31.285 15.8382C31.5274 16.0806 31.9206 16.0806 32.1627 15.8382L34.3744 13.6268C34.676 13.3249 35.0775 13.1587 35.5046 13.1587C35.9314 13.1587 36.3329 13.3249 36.6349 13.6268L47.9195 24.9115C48.5428 25.5348 48.5428 26.5487 47.9195 27.172L42.438 32.6535H26.7514L31.2633 28.1415C31.5058 27.8994 31.5058 27.5063 31.2633 27.2638C31.0208 27.0213 30.6277 27.0213 30.3855 27.2638L24.9959 32.6538H23.0493C21.4833 32.6538 20.2095 33.9276 20.2095 35.4933V51.4525C20.2095 53.0182 21.4833 54.2923 23.0493 54.2923H50.169C51.7351 54.2923 53.0088 53.0182 53.0088 51.4525V49.1584C53.0088 48.8154 52.7311 48.5376 52.3881 48.5376C52.0454 48.5376 51.7674 48.8154 51.7674 49.1584V51.4525C51.7674 52.3338 51.0506 53.0509 50.169 53.0509H23.0493C22.168 53.0509 21.4509 52.3338 21.4509 51.4525V42.7426H51.7674V46.6755C51.7674 47.0182 52.0451 47.2962 52.3881 47.2962C52.7311 47.2962 53.0088 47.0182 53.0088 46.6755V35.4936C53.0088 33.9276 51.7351 32.6538 50.169 32.6538ZM23.0493 33.8952H50.169C51.0503 33.8952 51.7674 34.6123 51.7674 35.4936V37.6675H21.4509V35.4936C21.4509 34.6123 22.168 33.8952 23.0493 33.8952ZM21.4509 41.5011V38.9089H51.7674V41.5011H21.4509Z" fill="#05A18F"/>
<path d="M44.963 47.2962C44.4383 47.2962 44.0112 47.7233 44.0112 48.248V50.6126C44.0112 51.1376 44.4383 51.5644 44.963 51.5644H48.7242C49.249 51.5644 49.676 51.1376 49.676 50.6126V48.248C49.676 47.7233 49.249 47.2962 48.7242 47.2962H44.963ZM48.4346 50.3229H45.2527V48.5377H48.4346V50.3229Z" fill="#05A18F"/>
<path d="M33.6232 47.2962C33.0985 47.2962 32.6714 47.7233 32.6714 48.248V50.6126C32.6714 51.1376 33.0985 51.5644 33.6232 51.5644H41.5785C42.1032 51.5644 42.5303 51.1376 42.5303 50.6126V48.248C42.5303 47.7233 42.1032 47.2962 41.5785 47.2962H33.6232ZM41.2888 50.3229H33.9128V48.5377H41.2888V50.3229Z" fill="#05A18F"/>
<path d="M26.0856 50.3229C25.7429 50.3229 25.4648 50.6009 25.4648 50.9436C25.4648 51.2866 25.7429 51.5643 26.0856 51.5643H30.0492C30.3919 51.5643 30.6699 51.2866 30.6699 50.9436C30.6699 50.6009 30.3919 50.3229 30.0492 50.3229H26.0856Z" fill="#05A18F"/>
</g>
<defs>
<clipPath id="clip0">
<rect width="42.375" height="42.375" fill="white" transform="translate(12 12)"/>
</clipPath>
</defs>
</svg>
