<svg width="68" height="67" viewBox="0 0 68 67" fill="none" xmlns="http://www.w3.org/2000/svg">
<rect width="67.6798" height="67" rx="6.55364" fill="#E6F5F7"/>
<path d="M33.8397 23.3036C34.5906 23.3036 35.1993 22.6949 35.1993 21.9441C35.1993 21.1933 34.5906 20.5846 33.8397 20.5846C33.0889 20.5846 32.4802 21.1933 32.4802 21.9441C32.4802 22.6949 33.0889 23.3036 33.8397 23.3036Z" fill="#05A18F"/>
<path d="M33.8398 42.3368V46.4153" stroke="#05A18F" stroke-width="1.91568" stroke-miterlimit="10" stroke-linecap="round" stroke-linejoin="round"/>
<path d="M36.6947 34.1797C37.0346 34.7236 37.2385 35.3353 37.2385 35.9471C37.2385 37.3066 36.3548 38.5302 35.0633 39.006L32.8201 39.6858C31.8005 40.0257 31.0527 40.9773 31.0527 42.0649C31.0527 43.0166 31.5965 43.9003 32.4802 44.3081L33.7718 44.9879" stroke="#05A18F" stroke-width="1.91568" stroke-miterlimit="10" stroke-linecap="round" stroke-linejoin="round"/>
<path d="M33.8398 28.062V38.9381" stroke="#05A18F" stroke-width="1.91568" stroke-miterlimit="10" stroke-linecap="round" stroke-linejoin="round"/>
<path d="M35.879 25.3429H33.228C31.3247 25.3429 29.7612 26.9063 29.7612 28.8097C29.7612 29.8293 30.2371 30.781 30.9848 31.4607" stroke="#05A18F" stroke-width="1.91568" stroke-miterlimit="10" stroke-linecap="round" stroke-linejoin="round"/>
<path d="M54.5724 28.6058L48.4546 18.0016L39.9576 22.8958V13.1073H27.722V22.8958L19.225 18.0016L13.1072 28.6058L21.6041 33.5L13.1072 38.3943L19.225 48.9985L27.722 44.1042V53.8927H39.9576V44.1042L48.4546 48.9985L54.5724 38.3943L46.0754 33.5L54.5724 28.6058Z" stroke="#05A18F" stroke-width="1.91568" stroke-miterlimit="10" stroke-linecap="round" stroke-linejoin="round"/>
</svg>
