<svg width="67" height="67" viewBox="0 0 67 67" fill="none" xmlns="http://www.w3.org/2000/svg">
<rect width="66.6705" height="66.625" rx="6" fill="#E6F5F7"/>
<path d="M12.0227 54.625C12.0227 54.625 11.3352 44.3125 17.5227 42.25L27.8352 38.8125V34.6875" stroke="#05A18F" stroke-width="1.5" stroke-miterlimit="10" stroke-linecap="round" stroke-linejoin="round"/>
<path d="M38.8354 34.6875V38.8125L49.1479 42.25C55.3354 44.3125 54.6479 54.625 54.6479 54.625" stroke="#05A18F" stroke-width="1.5" stroke-miterlimit="10" stroke-linecap="round" stroke-linejoin="round"/>
<path d="M36.7725 35.375C41.585 33.3125 42.0662 27.7438 42.6162 23.4813C42.8912 21.1438 42.96 18.6687 41.86 16.5375C40.8287 14.6125 38.9725 13.2375 36.91 12.55C35.81 12.2062 34.5725 12 33.335 12C32.0975 12 30.86 12.2062 29.76 12.6187C27.6975 13.3062 25.8412 14.6812 24.81 16.6062C23.71 18.7375 23.7787 21.2125 24.0537 23.55C24.6037 27.7437 25.085 33.3125 29.8975 35.375" stroke="#05A18F" stroke-width="1.5" stroke-miterlimit="10" stroke-linecap="round" stroke-linejoin="round"/>
<path d="M27.1479 21.625C34.0229 21.625 35.3979 20.25 36.0854 18.1875C36.0854 18.1875 36.0854 21.625 39.5229 21.625" stroke="#05A18F" stroke-width="1.5" stroke-miterlimit="10" stroke-linecap="square" stroke-linejoin="round"/>
<path d="M27.8354 38.8125C27.8354 42.9375 33.3354 46.375 33.3354 46.375C33.3354 46.375 38.8354 42.9375 38.8354 38.8125" stroke="#05A18F" stroke-width="1.5" stroke-miterlimit="10" stroke-linecap="round" stroke-linejoin="round"/>
<path d="M25.7732 39.5C23.0232 41.5625 23.7107 45 23.7107 45" stroke="#05A18F" stroke-width="1.5" stroke-miterlimit="10" stroke-linecap="round" stroke-linejoin="round"/>
<path d="M26.4604 54.625H28.5229V51.875C28.5229 48.85 26.4604 45 23.7104 45C20.9604 45 18.8979 48.85 18.8979 51.875V54.625H20.9604" stroke="#05A18F" stroke-width="1.5" stroke-miterlimit="10" stroke-linecap="round" stroke-linejoin="round"/>
<path d="M40.8979 39.5C42.9604 40.1875 42.9604 46.375 42.9604 46.375V47.75" stroke="#05A18F" stroke-width="1.5" stroke-miterlimit="10" stroke-linecap="round" stroke-linejoin="round"/>
<path d="M42.9604 54.625C44.8589 54.625 46.3979 53.086 46.3979 51.1875C46.3979 49.289 44.8589 47.75 42.9604 47.75C41.062 47.75 39.5229 49.289 39.5229 51.1875C39.5229 53.086 41.062 54.625 42.9604 54.625Z" stroke="#05A18F" stroke-width="1.5" stroke-miterlimit="10" stroke-linecap="round" stroke-linejoin="round"/>
</svg>
