<svg width="123" height="34" viewBox="0 0 123 34" fill="none" xmlns="http://www.w3.org/2000/svg">
<path d="M0.522095 4C0.522095 1.79086 2.31296 0 4.52209 0H118.522C120.731 0 122.522 1.79086 122.522 4V30C122.522 32.2091 120.731 34 118.522 34H4.5221C2.31296 34 0.522095 32.2091 0.522095 30V4Z" fill="#A0A8B1"/>
<path d="M24.7466 17.3536C24.7228 14.7752 26.9119 13.5208 27.012 13.4624C25.7722 11.7 23.8506 11.4592 23.1753 11.44C21.5614 11.2744 19.9958 12.3816 19.1737 12.3816C18.3351 12.3816 17.069 11.456 15.7045 11.4832C13.9486 11.5096 12.306 12.5008 11.405 14.04C9.54576 17.1784 10.9324 21.7904 12.7138 24.3272C13.6048 25.5696 14.6461 26.9568 16.0089 26.908C17.3423 26.8544 17.8403 26.0792 19.4494 26.0792C21.0436 26.0792 21.5113 26.908 22.9012 26.8768C24.3322 26.8544 25.2331 25.6288 26.093 24.3752C27.1228 22.9512 27.5363 21.5488 27.5527 21.4768C27.5191 21.4656 24.7737 20.444 24.7466 17.3536Z" fill="white"/>
<path d="M22.1209 9.7712C22.8381 8.8968 23.3287 7.7072 23.1925 6.5C22.1546 6.5448 20.8565 7.2 20.109 8.0552C19.4477 8.8088 18.8569 10.044 19.0096 11.2056C20.1755 11.2904 21.3726 10.632 22.1209 9.7712Z" fill="white"/>
<path d="M38.0416 9.03906C38.0703 9.04948 38.108 9.0638 38.1549 9.08203C38.2018 9.10286 38.2851 9.14974 38.4049 9.22266C38.5247 9.29297 38.6302 9.375 38.7213 9.46875C38.8125 9.5625 38.8945 9.69401 38.9674 9.86328C39.0429 10.0299 39.0807 10.2083 39.0807 10.3984C39.0807 10.862 38.8841 11.2578 38.4908 11.5859C38.1002 11.9141 37.5768 12.0781 36.9205 12.0781C36.6549 12.0781 36.3984 12.0469 36.151 11.9844C35.9036 11.9193 35.6992 11.8438 35.5377 11.7578C35.3789 11.6693 35.2369 11.5794 35.1119 11.4883C34.9895 11.3971 34.8997 11.3203 34.8424 11.2578L34.7604 11.1602L35.3229 10.6016C35.3385 10.6172 35.3619 10.6406 35.3932 10.6719C35.427 10.7031 35.4948 10.7578 35.5963 10.8359C35.7005 10.9141 35.8099 10.9844 35.9244 11.0469C36.039 11.1068 36.1875 11.1615 36.3698 11.2109C36.552 11.2578 36.7356 11.2812 36.9205 11.2812C37.3216 11.2812 37.6354 11.1914 37.8619 11.0117C38.0885 10.832 38.2018 10.6146 38.2018 10.3594C38.2018 10.1042 38.0885 9.88802 37.8619 9.71094C37.6354 9.53125 37.3216 9.44141 36.9205 9.44141H36.2408V8.64062H36.9205C37.2461 8.64062 37.5013 8.56641 37.6862 8.41797C37.8711 8.26693 37.9635 8.08464 37.9635 7.87109C37.9635 7.66276 37.8711 7.48568 37.6862 7.33984C37.5013 7.19401 37.2461 7.12109 36.9205 7.12109C36.6862 7.12109 36.4557 7.17188 36.2291 7.27344C36.0026 7.375 35.8333 7.47266 35.7213 7.56641L35.5612 7.71875L35.0026 7.16016C35.0182 7.13932 35.0442 7.11068 35.0807 7.07422C35.1198 7.03516 35.2005 6.96615 35.3229 6.86719C35.4453 6.76823 35.5742 6.68359 35.7096 6.61328C35.845 6.54036 36.0234 6.47396 36.2448 6.41406C36.4661 6.35156 36.6914 6.32031 36.9205 6.32031C37.5169 6.32031 37.9856 6.46224 38.3268 6.74609C38.6705 7.02734 38.8424 7.37891 38.8424 7.80078C38.8424 7.97266 38.8138 8.13281 38.7565 8.28125C38.7018 8.42969 38.6354 8.54818 38.5573 8.63672C38.4817 8.72526 38.4049 8.80208 38.3268 8.86719C38.2487 8.92969 38.1809 8.97396 38.1237 9L38.0416 9.03906ZM43.3227 12H42.5219V11.6016C42.5115 11.612 42.4933 11.6289 42.4673 11.6523C42.4438 11.6758 42.3943 11.7148 42.3188 11.7695C42.2459 11.8216 42.1665 11.8698 42.0805 11.9141C41.9946 11.9557 41.8865 11.9935 41.7563 12.0273C41.6261 12.0612 41.4946 12.0781 41.3618 12.0781C40.9712 12.0781 40.6469 11.9648 40.3891 11.7383C40.1313 11.5117 40.0024 11.2526 40.0024 10.9609C40.0024 10.6458 40.1014 10.3815 40.2993 10.168C40.4998 9.95443 40.7732 9.81901 41.1196 9.76172L42.5219 9.51953C42.5219 9.31641 42.4464 9.14583 42.2954 9.00781C42.1469 8.86979 41.9555 8.80078 41.7212 8.80078C41.518 8.80078 41.3331 8.84375 41.1665 8.92969C41.0024 9.01302 40.8891 9.09766 40.8266 9.18359L40.7212 9.32031L40.2016 8.80078C40.2173 8.77995 40.2381 8.75391 40.2641 8.72266C40.2928 8.6888 40.354 8.63151 40.4477 8.55078C40.5441 8.46745 40.6456 8.39323 40.7524 8.32812C40.8592 8.26302 40.9998 8.20573 41.1743 8.15625C41.3514 8.10417 41.5337 8.07812 41.7212 8.07812C42.1899 8.07812 42.574 8.21745 42.8735 8.49609C43.173 8.77214 43.3227 9.11328 43.3227 9.51953V12ZM41.4829 11.3594C41.8084 11.3594 42.0623 11.263 42.2446 11.0703C42.4295 10.875 42.5219 10.5977 42.5219 10.2383V10.1602L41.2798 10.3594C41.1365 10.3854 41.0206 10.444 40.9321 10.5352C40.8436 10.6263 40.7993 10.7409 40.7993 10.8789C40.7993 11.0065 40.8605 11.1185 40.9829 11.2148C41.1079 11.3112 41.2745 11.3594 41.4829 11.3594ZM47.2835 8.16016V8.87891H45.4046V12H44.6038V8.16016H47.2835ZM50.1232 12.0781C49.98 12.0781 49.8406 12.0612 49.7052 12.0273C49.5698 11.9935 49.4539 11.9518 49.3576 11.9023C49.2612 11.8503 49.1753 11.7982 49.0998 11.7461C49.0268 11.6914 48.9734 11.6484 48.9396 11.6172L48.8849 11.5586V13.6797H48.0841V8.16016H48.8849V8.60156C48.9214 8.5651 48.9721 8.51693 49.0373 8.45703C49.105 8.39714 49.2469 8.31901 49.463 8.22266C49.6792 8.1263 49.8992 8.07812 50.1232 8.07812C50.631 8.07812 51.0711 8.27344 51.4435 8.66406C51.8185 9.05208 52.006 9.52344 52.006 10.0781C52.006 10.6328 51.8185 11.1055 51.4435 11.4961C51.0711 11.8841 50.631 12.0781 50.1232 12.0781ZM50.8537 9.17578C50.6193 8.92578 50.3498 8.80078 50.0451 8.80078C49.7404 8.80078 49.4708 8.92578 49.2365 9.17578C49.0021 9.42578 48.8849 9.72786 48.8849 10.082C48.8849 10.4336 49.0021 10.7344 49.2365 10.9844C49.4708 11.2344 49.7404 11.3594 50.0451 11.3594C50.3498 11.3594 50.6193 11.2344 50.8537 10.9844C51.088 10.7344 51.2052 10.4336 51.2052 10.082C51.2052 9.72786 51.088 9.42578 50.8537 9.17578ZM53.9629 12.3984L54.123 12L52.5605 8.16016H53.4004L54.5215 10.9609L55.6426 8.16016H56.4824L54.7598 12.3984C54.5618 12.8724 54.3652 13.2044 54.1699 13.3945C53.9772 13.5846 53.735 13.6797 53.4433 13.6797C53.3366 13.6797 53.2363 13.6732 53.1426 13.6602C53.0488 13.6471 52.9798 13.6328 52.9355 13.6172L52.8808 13.6016V12.8789C53.0137 12.931 53.1478 12.9583 53.2832 12.9609C53.5879 12.9583 53.8144 12.7708 53.9629 12.3984ZM59.8377 9.16016C59.8377 9.33724 59.7882 9.49219 59.6893 9.625C59.5929 9.75781 59.494 9.84505 59.3924 9.88672L59.2401 9.96094C59.2609 9.96615 59.2882 9.97526 59.3221 9.98828C59.3586 10.0013 59.4184 10.0326 59.5018 10.082C59.5877 10.1289 59.6632 10.1862 59.7283 10.2539C59.7961 10.319 59.8573 10.4102 59.9119 10.5273C59.9692 10.6445 59.9979 10.776 59.9979 10.9219C59.9979 11.2422 59.8546 11.5156 59.5682 11.7422C59.2843 11.9661 58.895 12.0781 58.4002 12.0781C58.2127 12.0781 58.0317 12.0547 57.8573 12.0078C57.6854 11.9609 57.5421 11.9049 57.4276 11.8398C57.313 11.7747 57.2127 11.7096 57.1268 11.6445C57.0408 11.5768 56.977 11.5195 56.9354 11.4727L56.8807 11.3984L57.4002 10.8789C57.4315 10.9154 57.4731 10.9609 57.5252 11.0156C57.5799 11.0703 57.6945 11.1419 57.869 11.2305C58.0461 11.3164 58.2231 11.3594 58.4002 11.3594C58.6658 11.3594 58.8651 11.3099 58.9979 11.2109C59.1333 11.112 59.201 10.9883 59.201 10.8398C59.201 10.6914 59.1333 10.5677 58.9979 10.4688C58.8651 10.3698 58.6658 10.3203 58.4002 10.3203H57.9588V9.67969H58.4002C58.6086 9.67969 58.7674 9.63932 58.8768 9.55859C58.9862 9.47526 59.0408 9.36979 59.0408 9.24219C59.0408 9.11198 58.9862 9.00651 58.8768 8.92578C58.7674 8.84245 58.6086 8.80078 58.4002 8.80078C58.2466 8.80078 58.0955 8.83073 57.9471 8.89062C57.8013 8.94792 57.6932 9.00781 57.6229 9.07031L57.5213 9.16016L56.9979 8.64062C57.0343 8.59896 57.0877 8.54688 57.158 8.48438C57.2283 8.42188 57.3846 8.33854 57.6268 8.23438C57.869 8.13021 58.1268 8.07812 58.4002 8.07812C58.8429 8.07812 59.1932 8.1849 59.451 8.39844C59.7088 8.61198 59.8377 8.86589 59.8377 9.16016ZM63.8415 8.16016H64.5602V12H63.7594V9.48047L61.7594 12H61.0407V8.16016H61.8415V10.6797L63.8415 8.16016ZM65.4429 8.87891V8.16016H68.8804V8.87891H67.5601V12H66.7632V8.87891H65.4429ZM73.3177 10.3594H70.3177C70.3594 10.6302 70.4922 10.8646 70.7162 11.0625C70.9427 11.2604 71.2109 11.3594 71.5208 11.3594C71.7448 11.3594 71.9531 11.3086 72.1458 11.207C72.3412 11.1055 72.4792 11.0065 72.5599 10.9102L72.681 10.7617L73.2005 11.2812C73.1849 11.3021 73.1602 11.332 73.1263 11.3711C73.0951 11.4076 73.0261 11.4714 72.9193 11.5625C72.8125 11.651 72.6992 11.7305 72.5794 11.8008C72.4596 11.8685 72.3034 11.9323 72.1107 11.9922C71.9206 12.0495 71.724 12.0781 71.5208 12.0781C70.9766 12.0781 70.5065 11.8789 70.1107 11.4805C69.7175 11.0794 69.5208 10.599 69.5208 10.0391C69.5208 9.5 69.7122 9.03906 70.0951 8.65625C70.4805 8.27083 70.9414 8.07812 71.4779 8.07812C72.0169 8.07812 72.4649 8.25781 72.8216 8.61719C73.181 8.97396 73.3607 9.42188 73.3607 9.96094L73.3177 10.3594ZM71.4779 8.76172C71.1888 8.76172 70.9453 8.84766 70.7474 9.01953C70.5521 9.1888 70.4206 9.40885 70.3529 9.67969H72.5755C72.5287 9.40885 72.4076 9.1888 72.2122 9.01953C72.0169 8.84766 71.7721 8.76172 71.4779 8.76172ZM76.1572 8.16016H77.9971C78.3643 8.16016 78.6559 8.25521 78.8721 8.44531C79.0882 8.63281 79.1963 8.87109 79.1963 9.16016C79.1963 9.32422 79.1599 9.47396 79.0869 9.60938C79.0166 9.74219 78.9437 9.83464 78.8682 9.88672L78.7588 9.96094C78.7744 9.96615 78.7966 9.97526 78.8252 9.98828C78.8539 10.0013 78.9059 10.0352 78.9815 10.0898C79.057 10.1419 79.1221 10.2005 79.1768 10.2656C79.2341 10.3281 79.2849 10.4141 79.3291 10.5234C79.376 10.6328 79.3994 10.7513 79.3994 10.8789C79.3994 11.2096 79.2809 11.4792 79.044 11.6875C78.8096 11.8958 78.488 12 78.0791 12H76.1572V8.16016ZM78.0791 10.2812H76.958V11.3203H78.0791C78.238 11.3203 78.3643 11.2734 78.458 11.1797C78.5518 11.0859 78.5987 10.9596 78.5987 10.8008C78.5987 10.6576 78.5505 10.5352 78.4541 10.4336C78.3578 10.332 78.2328 10.2812 78.0791 10.2812ZM78.2901 9.53516C78.363 9.46224 78.3994 9.36458 78.3994 9.24219C78.3994 9.11719 78.363 9.01953 78.2901 8.94922C78.2171 8.8763 78.1195 8.83984 77.9971 8.83984H76.958V9.64062H77.9971C78.1195 9.64062 78.2171 9.60547 78.2901 9.53516Z" fill="white"/>
<path d="M44.4474 26.6298H42.4411L41.3422 23.2628H37.5223L36.4754 26.6298H34.5222L38.3067 15.1671H40.6443L44.4474 26.6298ZM41.0109 21.8502L40.017 18.8571C39.9119 18.5513 39.7149 17.8312 39.4243 16.6977H39.3889C39.2732 17.1852 39.0868 17.9053 38.8306 18.8571L37.8544 21.8502H41.0109Z" fill="white"/>
<path d="M54.1799 22.3979C54.1799 23.8036 53.7903 24.9147 53.0112 25.7304C52.3133 26.4565 51.4466 26.8191 50.4121 26.8191C49.2955 26.8191 48.4933 26.4281 48.0048 25.646H47.9695V30H46.086V21.0878C46.086 20.2041 46.0622 19.2971 46.0162 18.3668H47.6726L47.7778 19.6769H47.8131C48.4412 18.6898 49.3944 18.1971 50.6736 18.1971C51.6737 18.1971 52.5085 18.5822 53.1764 19.3531C53.846 20.1248 54.1799 21.1395 54.1799 22.3979ZM52.2611 22.4651C52.2611 21.6606 52.0756 20.9973 51.7028 20.4754C51.2956 19.931 50.7487 19.6588 50.0632 19.6588C49.5985 19.6588 49.1762 19.8104 48.799 20.1093C48.4209 20.4108 48.1735 20.8044 48.0578 21.2919C47.9995 21.5193 47.9704 21.7054 47.9704 21.8518V23.2299C47.9704 23.8311 48.1594 24.3385 48.5375 24.7528C48.9156 25.1671 49.4068 25.3738 50.0111 25.3738C50.7205 25.3738 51.2726 25.1068 51.6675 24.5745C52.0633 24.0413 52.2611 23.3385 52.2611 22.4651Z" fill="white"/>
<path d="M63.9317 22.3979C63.9317 23.8036 63.5421 24.9147 62.7621 25.7304C62.0651 26.4565 61.1984 26.8191 60.1639 26.8191C59.0473 26.8191 58.2451 26.4281 57.7575 25.646H57.7222V30H55.8387V21.0878C55.8387 20.2041 55.8149 19.2971 55.7689 18.3668H57.4253L57.5305 19.6769H57.5658C58.193 18.6898 59.1462 18.1971 60.4263 18.1971C61.4255 18.1971 62.2603 18.5822 62.9299 19.3531C63.5969 20.1248 63.9317 21.1395 63.9317 22.3979ZM62.0129 22.4651C62.0129 21.6606 61.8265 20.9973 61.4537 20.4754C61.0465 19.931 60.5014 19.6588 59.815 19.6588C59.3494 19.6588 58.928 19.8104 58.5499 20.1093C58.1718 20.4108 57.9253 20.8044 57.8096 21.2919C57.7522 21.5193 57.7222 21.7054 57.7222 21.8518V23.2299C57.7222 23.8311 57.9112 24.3385 58.2876 24.7528C58.6657 25.1662 59.1568 25.3738 59.7629 25.3738C60.4723 25.3738 61.0244 25.1068 61.4193 24.5745C61.8151 24.0413 62.0129 23.3385 62.0129 22.4651Z" fill="white"/>
<path d="M74.832 23.4161C74.832 24.3911 74.4848 25.1844 73.7878 25.7968C73.0219 26.4661 71.9556 26.8003 70.5854 26.8003C69.3203 26.8003 68.3061 26.5626 67.5385 26.0863L67.9749 24.5557C68.8017 25.0432 69.709 25.2878 70.6976 25.2878C71.407 25.2878 71.9591 25.131 72.3557 24.8192C72.7506 24.5074 72.9476 24.0888 72.9476 23.5668C72.9476 23.1017 72.7851 22.7098 72.4591 22.392C72.1349 22.0741 71.5934 21.7787 70.8371 21.5057C68.7788 20.7572 67.7505 19.6607 67.7505 18.2188C67.7505 17.2765 68.1109 16.5039 68.8327 15.9027C69.5518 15.3006 70.5112 15 71.7108 15C72.7807 15 73.6694 15.1817 74.3788 15.5444L73.9079 17.0414C73.2454 16.6899 72.4962 16.5142 71.6578 16.5142C70.9953 16.5142 70.4776 16.6736 70.1066 16.9905C69.7929 17.2739 69.6357 17.6193 69.6357 18.0285C69.6357 18.4815 69.815 18.8562 70.1755 19.1508C70.4891 19.423 71.0589 19.7175 71.8858 20.0354C72.8973 20.4324 73.6402 20.8967 74.1182 21.429C74.5943 21.9596 74.832 22.6237 74.832 23.4161Z" fill="white"/>
<path d="M81.0599 19.7423H78.9839V23.7552C78.9839 24.7759 79.3496 25.2858 80.0829 25.2858C80.4194 25.2858 80.6986 25.2574 80.9195 25.2006L80.9716 26.5951C80.6005 26.7303 80.112 26.7983 79.5069 26.7983C78.763 26.7983 78.1817 26.577 77.7621 26.1351C77.3443 25.6924 77.134 24.9499 77.134 23.9068V19.7406H75.8972V18.3624H77.134V16.8491L78.9839 16.3047V18.3624H81.0599V19.7423Z" fill="white"/>
<path d="M90.4258 22.4298C90.4258 23.7002 90.053 24.7433 89.3091 25.559C88.5291 26.3988 87.4937 26.8174 86.203 26.8174C84.9592 26.8174 83.9688 26.4151 83.2303 25.6107C82.4918 24.8062 82.1225 23.7907 82.1225 22.5667C82.1225 21.2859 82.5024 20.2368 83.2648 19.4211C84.0254 18.6046 85.0519 18.1963 86.3426 18.1963C87.5865 18.1963 88.5874 18.5985 89.3427 19.4039C90.0653 20.1851 90.4258 21.1937 90.4258 22.4298ZM88.4716 22.4892C88.4716 21.7269 88.3047 21.0731 87.9663 20.5279C87.5714 19.8681 87.0069 19.5391 86.2755 19.5391C85.5184 19.5391 84.9433 19.869 84.5484 20.5279C84.21 21.074 84.0431 21.7381 84.0431 22.5236C84.0431 23.2859 84.21 23.9397 84.5484 24.484C84.9556 25.1438 85.5245 25.4728 86.2587 25.4728C86.9778 25.4728 87.5423 25.1369 87.9495 24.4668C88.2967 23.9112 88.4716 23.2506 88.4716 22.4892Z" fill="white"/>
<path d="M96.547 19.9818C96.3606 19.9482 96.1619 19.931 95.9534 19.931C95.2908 19.931 94.7784 20.1748 94.418 20.6631C94.1044 21.0938 93.9471 21.6382 93.9471 22.2954V26.6322H92.0645L92.0822 20.9698C92.0822 20.0171 92.0584 19.1498 92.0115 18.3677H93.6521L93.721 19.9491H93.7731C93.9719 19.4056 94.2855 18.968 94.7148 18.6399C95.1344 18.3444 95.5876 18.1971 96.0762 18.1971C96.2502 18.1971 96.4075 18.2092 96.547 18.2307V19.9818Z" fill="white"/>
<path d="M104.972 22.1069C104.972 22.4359 104.949 22.7133 104.903 22.9398H99.2523C99.2744 23.7563 99.5474 24.3808 100.072 24.8115C100.548 25.1965 101.164 25.3894 101.92 25.3894C102.757 25.3894 103.52 25.2594 104.207 24.9984L104.502 26.2732C103.699 26.6143 102.752 26.7839 101.66 26.7839C100.345 26.7839 99.3132 26.4067 98.5623 25.653C97.8132 24.8993 97.4377 23.8873 97.4377 22.6177C97.4377 21.3713 97.7867 20.3334 98.4855 19.5056C99.217 18.6219 100.205 18.1801 101.449 18.1801C102.671 18.1801 103.596 18.6219 104.224 19.5056C104.722 20.2076 104.972 21.0759 104.972 22.1069ZM103.176 21.6306C103.188 21.0862 103.065 20.6159 102.81 20.2188C102.484 19.7081 101.983 19.4531 101.309 19.4531C100.693 19.4531 100.192 19.702 99.8097 20.2016C99.4961 20.5987 99.3097 21.075 99.2523 21.6297H103.176V21.6306Z" fill="white"/>
</svg>
