<svg width="123" height="34" viewBox="0 0 123 34" fill="none" xmlns="http://www.w3.org/2000/svg">
<path d="M0.522095 4C0.522095 1.79086 2.31296 0 4.52209 0H119C121.209 0 123 1.79086 123 4V30C123 32.2091 121.209 34 119 34H4.52209C2.31295 34 0.522095 32.2091 0.522095 30V4Z" fill="#A0A8B1"/>
<path d="M10.91 6.82379C10.6644 7.07486 10.5222 7.46575 10.5222 7.97196V26.0283C10.5222 26.5345 10.6644 26.9254 10.91 27.1765L10.9707 27.2316L21.334 17.1175V16.8787L10.9707 6.7646L10.91 6.82379Z" fill="#CFD3D8"/>
<path d="M24.7869 20.4911L21.3363 17.118V16.8792L24.7911 13.5062L24.8684 13.55L28.9598 15.8229C30.1275 16.4679 30.1275 17.5293 28.9598 18.1784L24.8684 20.4472L24.7869 20.4911Z" fill="white"/>
<path d="M24.869 20.4466L21.3369 16.998L10.9129 27.1764C11.3007 27.5744 11.9331 27.6224 12.6523 27.2244L24.869 20.4466Z" fill="#F5F5F5"/>
<path d="M24.869 13.55L12.6523 6.7722C11.9331 6.37825 11.3007 6.42622 10.9129 6.82425L21.3369 16.9985L24.869 13.55Z" fill="#F5F5F5"/>
<path d="M36.5221 11.1992H36.8424C36.8684 11.1784 36.9023 11.1432 36.944 11.0938C36.9882 11.0417 37.0651 10.9258 37.1744 10.7461C37.2838 10.5638 37.3802 10.3646 37.4635 10.1484C37.5494 9.93229 37.6276 9.63802 37.6979 9.26562C37.7682 8.89062 37.8033 8.49479 37.8033 8.07812V6.39844H41.444V11.1992H42.1237V13.1992H41.2408V12H37.401V13.1992H36.5221V11.1992ZM38.6823 8.07812C38.6823 8.49479 38.6484 8.88802 38.5807 9.25781C38.5156 9.625 38.4362 9.92188 38.3424 10.1484C38.2487 10.375 38.1549 10.5729 38.0612 10.7422C37.9674 10.9089 37.8867 11.0273 37.819 11.0977L37.7213 11.1992H40.5612V7.19922H38.6823V8.07812ZM45.6508 10.9883C45.8878 10.7409 46.0063 10.4388 46.0063 10.082C46.0063 9.72266 45.8878 9.41927 45.6508 9.17188C45.4139 8.92448 45.1326 8.80078 44.8071 8.80078C44.4816 8.80078 44.199 8.92448 43.9594 9.17188C43.7225 9.41927 43.604 9.72266 43.604 10.082C43.604 10.4388 43.7225 10.7409 43.9594 10.9883C44.199 11.2357 44.4816 11.3594 44.8071 11.3594C45.1326 11.3594 45.4139 11.2357 45.6508 10.9883ZM43.4008 11.4844C43.005 11.0859 42.8071 10.6185 42.8071 10.082C42.8071 9.54297 43.005 9.07422 43.4008 8.67578C43.7993 8.27734 44.268 8.07812 44.8071 8.07812C45.3462 8.07812 45.8136 8.27734 46.2094 8.67578C46.6079 9.07422 46.8071 9.54297 46.8071 10.082C46.8071 10.6185 46.6079 11.0859 46.2094 11.4844C45.8136 11.8802 45.3462 12.0781 44.8071 12.0781C44.268 12.0781 43.7993 11.8802 43.4008 11.4844ZM48.2015 11.4844C47.8056 11.0859 47.6077 10.6185 47.6077 10.082C47.6077 9.54297 47.8056 9.07422 48.2015 8.67578C48.5999 8.27734 49.0687 8.07812 49.6077 8.07812C49.9072 8.07812 50.1858 8.14323 50.4437 8.27344C50.7015 8.40104 50.8864 8.52865 50.9983 8.65625L51.1663 8.83984L50.6468 9.35938C50.6207 9.31771 50.5804 9.26693 50.5257 9.20703C50.4736 9.14453 50.3577 9.0612 50.178 8.95703C50.0009 8.85286 49.8108 8.80078 49.6077 8.80078C49.2822 8.80078 48.9996 8.92448 48.7601 9.17188C48.5231 9.41927 48.4046 9.72266 48.4046 10.082C48.4046 10.4388 48.5231 10.7409 48.7601 10.9883C48.9996 11.2357 49.2822 11.3594 49.6077 11.3594C49.8108 11.3594 50.0009 11.3086 50.178 11.207C50.3577 11.1055 50.4866 11.0065 50.5648 10.9102L50.6858 10.7617L51.2054 11.2812C51.1898 11.3021 51.1663 11.332 51.1351 11.3711C51.1038 11.4076 51.0361 11.4714 50.9319 11.5625C50.8278 11.651 50.7184 11.7305 50.6038 11.8008C50.4892 11.8685 50.3408 11.9323 50.1585 11.9922C49.9762 12.0495 49.7926 12.0781 49.6077 12.0781C49.0687 12.0781 48.5999 11.8802 48.2015 11.4844ZM51.7638 8.87891V8.16016H55.2013V8.87891H53.881V12H53.0841V8.87891H51.7638ZM57.0019 12.3984L57.1621 12L55.5996 8.16016H56.4394L57.5605 10.9609L58.6816 8.16016H59.5215L57.7988 12.3984C57.6009 12.8724 57.4043 13.2044 57.209 13.3945C57.0163 13.5846 56.7741 13.6797 56.4824 13.6797C56.3756 13.6797 56.2754 13.6732 56.1816 13.6602C56.0879 13.6471 56.0189 13.6328 55.9746 13.6172L55.9199 13.6016V12.8789C56.0527 12.931 56.1868 12.9583 56.3223 12.9609C56.6269 12.9583 56.8535 12.7708 57.0019 12.3984ZM61.119 8.87891V12H60.3182V8.16016H63.7987V12H62.9979V8.87891H61.119ZM65.8805 10.3984V12H65.0798V8.16016H65.8805V9.67969H67.7594V8.16016H68.5602V12H67.7594V10.3984H65.8805ZM72.4468 10.9883C72.6838 10.7409 72.8022 10.4388 72.8022 10.082C72.8022 9.72266 72.6838 9.41927 72.4468 9.17188C72.2098 8.92448 71.9286 8.80078 71.603 8.80078C71.2775 8.80078 70.995 8.92448 70.7554 9.17188C70.5184 9.41927 70.3999 9.72266 70.3999 10.082C70.3999 10.4388 70.5184 10.7409 70.7554 10.9883C70.995 11.2357 71.2775 11.3594 71.603 11.3594C71.9286 11.3594 72.2098 11.2357 72.4468 10.9883ZM70.1968 11.4844C69.8009 11.0859 69.603 10.6185 69.603 10.082C69.603 9.54297 69.8009 9.07422 70.1968 8.67578C70.5952 8.27734 71.064 8.07812 71.603 8.07812C72.1421 8.07812 72.6095 8.27734 73.0054 8.67578C73.4038 9.07422 73.603 9.54297 73.603 10.082C73.603 10.6185 73.4038 11.0859 73.0054 11.4844C72.6095 11.8802 72.1421 12.0781 71.603 12.0781C71.064 12.0781 70.5952 11.8802 70.1968 11.4844ZM76.4035 8.16016H78.2433C78.6105 8.16016 78.9022 8.25521 79.1183 8.44531C79.3345 8.63281 79.4426 8.87109 79.4426 9.16016C79.4426 9.32422 79.4061 9.47396 79.3332 9.60938C79.2629 9.74219 79.19 9.83464 79.1144 9.88672L79.0051 9.96094C79.0207 9.96615 79.0428 9.97526 79.0715 9.98828C79.1001 10.0013 79.1522 10.0352 79.2277 10.0898C79.3032 10.1419 79.3683 10.2005 79.423 10.2656C79.4803 10.3281 79.5311 10.4141 79.5754 10.5234C79.6222 10.6328 79.6457 10.7513 79.6457 10.8789C79.6457 11.2096 79.5272 11.4792 79.2902 11.6875C79.0558 11.8958 78.7342 12 78.3254 12H76.4035V8.16016ZM78.3254 10.2812H77.2043V11.3203H78.3254C78.4842 11.3203 78.6105 11.2734 78.7043 11.1797C78.798 11.0859 78.8449 10.9596 78.8449 10.8008C78.8449 10.6576 78.7967 10.5352 78.7004 10.4336C78.604 10.332 78.479 10.2812 78.3254 10.2812ZM78.5363 9.53516C78.6092 9.46224 78.6457 9.36458 78.6457 9.24219C78.6457 9.11719 78.6092 9.01953 78.5363 8.94922C78.4634 8.8763 78.3657 8.83984 78.2433 8.83984H77.2043V9.64062H78.2433C78.3657 9.64062 78.4634 9.60547 78.5363 9.53516Z" fill="white"/>
<path d="M60.9638 19.145C58.8451 19.145 57.1142 20.7193 57.1142 22.8914C57.1142 25.0459 58.8451 26.6367 60.9638 26.6367C63.0871 26.6367 64.8179 25.0459 64.8179 22.8914C64.8179 20.7193 63.0871 19.145 60.9638 19.145ZM60.9638 25.1615C59.8013 25.1615 58.8011 24.2246 58.8011 22.8914C58.8011 21.5406 59.8013 20.6202 60.9638 20.6202C62.1264 20.6202 63.131 21.5406 63.131 22.8914C63.131 24.2246 62.1264 25.1615 60.9638 25.1615ZM52.5644 19.145C50.4411 19.145 48.7148 20.7193 48.7148 22.8914C48.7148 25.0459 50.4411 26.6367 52.5644 26.6367C54.6865 26.6367 56.414 25.0459 56.414 22.8914C56.414 20.7193 54.6865 19.145 52.5644 19.145ZM52.5644 25.1615C51.4007 25.1615 50.3971 24.2246 50.3971 22.8914C50.3971 21.5406 51.4007 20.6202 52.5644 20.6202C53.7269 20.6202 54.7271 21.5406 54.7271 22.8914C54.7271 24.2246 53.7269 25.1615 52.5644 25.1615ZM42.5694 20.2932V21.8851H46.463C46.3491 22.7747 46.0446 23.4286 45.5778 23.8844C45.0095 24.4349 44.1243 25.0459 42.5694 25.0459C40.1732 25.0459 38.2969 23.1578 38.2969 20.8184C38.2969 18.4789 40.1732 16.5908 42.5694 16.5908C43.865 16.5908 44.8077 17.0851 45.5034 17.7259L46.6524 16.604C45.6793 15.6969 44.3848 15 42.5694 15C39.2836 15 36.5221 17.6103 36.5221 20.8184C36.5221 24.0264 39.2836 26.6367 42.5694 26.6367C44.3453 26.6367 45.6793 26.0686 46.7279 25.0029C47.8025 23.9538 48.1374 22.4785 48.1374 21.2873C48.1374 20.9174 48.1059 20.5773 48.0495 20.2932H42.5694ZM83.4401 21.5273C83.1233 20.6895 82.1457 19.145 80.1543 19.145C78.181 19.145 76.5381 20.6631 76.5381 22.8914C76.5381 24.9897 78.1641 26.6367 80.3438 26.6367C82.1062 26.6367 83.1233 25.5875 83.5416 24.9765L82.2336 24.1255C81.7972 24.7486 81.203 25.1615 80.3438 25.1615C79.4902 25.1615 78.8779 24.7795 78.4855 24.0264L83.6172 21.9534L83.4401 21.5273ZM78.2081 22.7747C78.1641 21.3303 79.3571 20.5905 80.2118 20.5905C80.8816 20.5905 81.4499 20.9174 81.6394 21.3853L78.2081 22.7747ZM74.0371 26.4088H75.724V15.3996H74.0371V26.4088ZM71.2745 19.9795H71.2181C70.8393 19.5413 70.1165 19.145 69.2009 19.145C67.2795 19.145 65.5227 20.7919 65.5227 22.9035C65.5227 25.0029 67.2795 26.6367 69.2009 26.6367C70.1165 26.6367 70.8393 26.2371 71.2181 25.7857H71.2745V26.3229C71.2745 27.7552 70.4909 28.5248 69.2268 28.5248C68.1962 28.5248 67.5569 27.7982 67.293 27.1872L65.826 27.785C66.2488 28.778 67.3685 30 69.2268 30C71.2046 30 72.8735 28.8639 72.8735 26.0995V19.3728H71.2745V19.9795ZM69.3452 25.1615C68.1827 25.1615 67.2095 24.2114 67.2095 22.9035C67.2095 21.5835 68.1827 20.6202 69.3452 20.6202C70.4909 20.6202 71.3941 21.5835 71.3941 22.9035C71.3941 24.2114 70.4909 25.1615 69.3452 25.1615ZM91.3378 15.3996H87.3033V26.4088H88.9856V22.2374H91.3378C93.2062 22.2374 95.0386 20.9174 95.0386 18.818C95.0386 16.7196 93.2017 15.3996 91.3378 15.3996ZM91.3818 20.7061H88.9856V16.931H91.3818C92.6379 16.931 93.3551 17.9494 93.3551 18.818C93.3551 19.6701 92.6379 20.7061 91.3818 20.7061ZM101.782 19.124C100.566 19.124 99.302 19.6481 98.7822 20.8095L100.275 21.4206C100.596 20.8095 101.187 20.6114 101.812 20.6114C102.685 20.6114 103.57 21.1233 103.583 22.0272V22.1428C103.279 21.971 102.627 21.7167 101.826 21.7167C100.218 21.7167 98.5792 22.5809 98.5792 24.1938C98.5792 25.669 99.8962 26.6191 101.377 26.6191C102.509 26.6191 103.134 26.1204 103.526 25.5402H103.583V26.3912H105.208V22.1681C105.208 20.2162 103.715 19.124 101.782 19.124ZM101.579 25.1571C101.028 25.1571 100.262 24.8906 100.262 24.2246C100.262 23.3725 101.218 23.0455 102.045 23.0455C102.786 23.0455 103.134 23.2051 103.583 23.4154C103.452 24.4349 102.553 25.1571 101.579 25.1571ZM111.128 19.3651L109.194 24.1376H109.137L107.138 19.3651H105.323L108.327 26.0345L106.613 29.7457H108.371L113 19.3651H111.128ZM95.9632 26.4088H97.6501V15.3996H95.9632V26.4088Z" fill="white"/>
</svg>
