<svg width="33" height="32" viewBox="0 0 33 32" fill="none" xmlns="http://www.w3.org/2000/svg">
<path d="M0.522095 16C0.522095 7.16344 7.68554 0 16.5221 0C25.3587 0 32.5221 7.16344 32.5221 16C32.5221 24.8366 25.3587 32 16.5221 32C7.68554 32 0.522095 24.8366 0.522095 16Z" fill="#A0A8B1"/>
<g clip-path="url(#clip0_65:3307)">
<path d="M26.3438 20.345C26.2901 20.255 25.9575 19.5324 24.3574 18.0473C22.6823 16.4922 22.9073 16.7447 24.925 14.0558C26.1538 12.4181 26.6451 11.4181 26.4913 10.9905C26.3451 10.583 25.4413 10.6905 25.4413 10.6905L22.436 10.708C22.436 10.708 22.2135 10.678 22.0473 10.7768C21.886 10.8743 21.7822 11.0993 21.7822 11.0993C21.7822 11.0993 21.306 12.3669 20.6709 13.4445C19.3321 15.7184 18.7958 15.8384 18.577 15.6971C18.0682 15.3684 18.1957 14.3745 18.1957 13.6695C18.1957 11.4656 18.5295 10.5468 17.5444 10.3092C17.2169 10.2305 16.9769 10.178 16.1406 10.1692C15.068 10.158 14.1592 10.173 13.6454 10.4243C13.3029 10.5918 13.0391 10.9655 13.2004 10.9868C13.3991 11.013 13.8492 11.1081 14.0879 11.4331C14.3967 11.8519 14.3854 12.7944 14.3854 12.7944C14.3854 12.7944 14.563 15.3884 13.9717 15.7109C13.5654 15.9322 13.0091 15.4809 11.8153 13.417C11.204 12.3606 10.7414 11.1918 10.7414 11.1918C10.7414 11.1918 10.6527 10.9743 10.4939 10.858C10.3014 10.7168 10.0314 10.6718 10.0314 10.6718L7.17367 10.6893C7.17367 10.6893 6.74489 10.7018 6.58738 10.888C6.44737 11.0543 6.57613 11.3968 6.57613 11.3968C6.57613 11.3968 8.81379 16.631 11.3465 19.2699C13.6704 21.6888 16.3081 21.5301 16.3081 21.5301H17.5032C17.5032 21.5301 17.8645 21.4901 18.0482 21.2913C18.2182 21.1088 18.212 20.7663 18.212 20.7663C18.212 20.7663 18.1882 19.1624 18.9333 18.9261C19.6671 18.6936 20.6097 20.4762 21.6085 21.1625C22.3635 21.6813 22.9373 21.5676 22.9373 21.5676L25.6088 21.5301C25.6088 21.5301 27.0064 21.4438 26.3438 20.345Z" fill="white"/>
</g>
<defs>
<clipPath id="clip0_65:3307">
<rect width="20" height="20" fill="white" transform="translate(6.52209 6)"/>
</clipPath>
</defs>
</svg>
