<svg width="33" height="32" viewBox="0 0 33 32" fill="none" xmlns="http://www.w3.org/2000/svg">
<path d="M0.522095 16C0.522095 7.16344 7.68554 0 16.5221 0C25.3587 0 32.5221 7.16344 32.5221 16C32.5221 24.8366 25.3587 32 16.5221 32C7.68554 32 0.522095 24.8366 0.522095 16Z" fill="#A0A8B1"/>
<path d="M16.6864 24.3343C16.6312 24.3343 16.576 24.3343 16.5205 24.334C15.214 24.3372 14.0069 24.304 12.8329 24.2325C11.7566 24.167 10.7742 23.7951 9.99162 23.157C9.23653 22.5413 8.72089 21.7088 8.45907 20.6828C8.23119 19.7896 8.21911 18.9129 8.20754 18.0648C8.19915 17.4563 8.1905 16.7353 8.18872 16.0021C8.1905 15.2659 8.19915 14.5449 8.20754 13.9364C8.21911 13.0885 8.23119 12.2117 8.45907 11.3184C8.72089 10.2924 9.23653 9.45992 9.99162 8.84421C10.7742 8.20611 11.7566 7.83416 12.833 7.76867C14.007 7.69734 15.2144 7.66402 16.5236 7.6672C17.8305 7.6644 19.0372 7.69734 20.2112 7.76867C21.2875 7.83416 22.2699 8.20611 23.0525 8.84421C23.8077 9.45992 24.3232 10.2924 24.585 11.3184C24.8129 12.2116 24.825 13.0885 24.8366 13.9364C24.845 14.5449 24.8537 15.2659 24.8554 15.9991V16.0021C24.8537 16.7353 24.845 17.4563 24.8366 18.0648C24.825 18.9127 24.813 19.7895 24.585 20.6828C24.3232 21.7088 23.8077 22.5413 23.0525 23.157C22.2699 23.7951 21.2875 24.167 20.2112 24.2325C19.087 24.3009 17.9321 24.3343 16.6864 24.3343ZM16.5205 23.0319C17.8057 23.0349 18.9857 23.0025 20.1321 22.9328C20.9459 22.8833 21.6516 22.6192 22.2296 22.1478C22.764 21.7121 23.132 21.1108 23.3233 20.3608C23.5131 19.6173 23.524 18.819 23.5346 18.047C23.5428 17.4426 23.5515 16.7267 23.5533 16.0006C23.5515 15.2744 23.5428 14.5586 23.5346 13.9542C23.524 13.1822 23.5131 12.3839 23.3233 11.6402C23.132 10.8902 22.764 10.289 22.2296 9.85323C21.6516 9.38197 20.9459 9.11786 20.1321 9.06839C18.9857 8.99858 17.8057 8.96641 16.5235 8.96921C15.2386 8.96615 14.0584 8.99858 12.912 9.06839C12.0982 9.11786 11.3926 9.38197 10.8145 9.85323C10.2801 10.289 9.91214 10.8902 9.72076 11.6402C9.53104 12.3839 9.5201 13.1821 9.50955 13.9542C9.50128 14.5591 9.49263 15.2754 9.49085 16.0021C9.49263 16.7257 9.50128 17.4421 9.50955 18.047C9.5201 18.819 9.53104 19.6173 9.72076 20.3608C9.91214 21.1108 10.2801 21.7121 10.8145 22.1478C11.3926 22.6191 12.0982 22.8832 12.912 22.9327C14.0584 23.0025 15.2388 23.0351 16.5205 23.0319ZM16.4894 20.0698C14.2458 20.0698 12.4203 18.2444 12.4203 16.0006C12.4203 13.7568 14.2458 11.9314 16.4894 11.9314C18.7332 11.9314 20.5586 13.7568 20.5586 16.0006C20.5586 18.2444 18.7332 20.0698 16.4894 20.0698ZM16.4894 13.2336C14.9638 13.2336 13.7224 14.4749 13.7224 16.0006C13.7224 17.5263 14.9638 18.7676 16.4894 18.7676C18.0152 18.7676 19.2565 17.5263 19.2565 16.0006C19.2565 14.4749 18.0152 13.2336 16.4894 13.2336ZM21.0143 10.6293C20.4751 10.6293 20.0378 11.0665 20.0378 11.6059C20.0378 12.1453 20.4751 12.5825 21.0143 12.5825C21.5538 12.5825 21.9909 12.1453 21.9909 11.6059C21.9909 11.0665 21.5538 10.6293 21.0143 10.6293Z" fill="white"/>
</svg>
