<svg width="33" height="32" viewBox="0 0 33 32" fill="none" xmlns="http://www.w3.org/2000/svg">
<path d="M0.522095 16C0.522095 7.16344 7.68554 0 16.5221 0C25.3587 0 32.5221 7.16344 32.5221 16C32.5221 24.8366 25.3587 32 16.5221 32C7.68554 32 0.522095 24.8366 0.522095 16Z" fill="#A0A8B1"/>
<path d="M17.509 25.1667V16.8046H20.3147L20.7356 13.5448H17.509V11.4639C17.509 10.5204 17.7699 9.87741 19.1244 9.87741L20.8492 9.8767V6.961C20.5509 6.92224 19.527 6.83337 18.3354 6.83337C15.847 6.83337 14.1434 8.35226 14.1434 11.141V13.5448H11.3292V16.8046H14.1434V25.1667H17.509Z" fill="white"/>
</svg>
