<svg width="33" height="32" viewBox="0 0 33 32" fill="none" xmlns="http://www.w3.org/2000/svg">
<path d="M0.522095 16C0.522095 7.16344 7.68554 0 16.5221 0V0C25.3587 0 32.5221 7.16344 32.5221 16V16C32.5221 24.8366 25.3587 32 16.5221 32V32C7.68554 32 0.522095 24.8366 0.522095 16V16Z" fill="#A0A8B1"/>
<path d="M24.512 11.9926C24.3199 11.2786 23.757 10.7157 23.0431 10.5235C21.7389 10.1666 16.5219 10.1666 16.5219 10.1666C16.5219 10.1666 11.3051 10.1666 10.0009 10.5099C9.30068 10.702 8.724 11.2787 8.53194 11.9926C8.18872 13.2967 8.18872 16.0013 8.18872 16.0013C8.18872 16.0013 8.18872 18.7195 8.53194 20.01C8.7242 20.7239 9.28695 21.2867 10.001 21.479C11.3188 21.836 16.5221 21.836 16.5221 21.836C16.5221 21.836 21.7389 21.836 23.0431 21.4926C23.7571 21.3005 24.3199 20.7376 24.5122 20.0237C24.8553 18.7195 24.8553 16.015 24.8553 16.015C24.8553 16.015 24.8691 13.2967 24.512 11.9926ZM14.8609 18.4999V13.5027L19.1991 16.0013L14.8609 18.4999Z" fill="white"/>
</svg>
