<svg width="185" height="32" viewBox="0 0 185 32" fill="none" xmlns="http://www.w3.org/2000/svg">
<path d="M18.5018 18.9335L15.4224 15.8499L18.5018 12.7663V6.59912L9.26367 15.8499L18.5018 25.1006V18.9335Z" fill="#FF0040"/>
<path d="M0 0.415283V31.285H30.836V0.415283H0ZM26.4284 26.8714H4.40756V4.8204H26.4284V26.8714Z" fill="#FF0040"/>
<path d="M48.5676 26.4221L50.801 28.9465C50.3611 29.4548 49.8535 29.8954 49.2867 30.2681C48.0177 31.1322 46.5542 31.5727 44.8791 31.5727C42.7219 31.5727 40.92 30.878 39.4733 29.4887C38.0352 28.0994 37.3076 26.3967 37.3076 24.3889C37.3076 22.3812 38.0267 20.6785 39.4733 19.2892C40.9115 17.8999 42.7134 17.2052 44.8791 17.2052C46.5119 17.2052 47.967 17.6457 49.2444 18.5267C49.8112 18.9249 50.3019 19.3654 50.6995 19.8313L48.4661 22.3558C48.17 22.0339 47.8401 21.7374 47.4763 21.4833C46.6388 20.8987 45.7674 20.6107 44.8791 20.6107C43.8217 20.6107 42.9249 20.975 42.1889 21.712C41.4614 22.4405 41.0976 23.3385 41.0976 24.4059C41.0976 25.4733 41.4614 26.3628 42.1889 27.0998C42.9165 27.8283 43.8132 28.2011 44.8791 28.2011C45.759 28.2011 46.6388 27.913 47.5186 27.3285C47.9078 27.0405 48.2546 26.7525 48.5676 26.4221Z" fill="#11253D"/>
<path d="M52.4082 31.1831V17.5865H56.0967V25.0668L61.917 17.5865H65.1148V31.1831H61.4264V23.7029L55.606 31.1831H52.4082Z" fill="#11253D"/>
<path d="M67.8809 31.1831V17.5865H71.5693V22.5423H76.5183V17.5865H80.2068V31.1831H76.5183V26.0325H71.5693V31.1831H67.8809Z" fill="#11253D"/>
<path d="M82.9736 31.1831V17.5865H93.3538V20.8904H86.6621V22.8303H91.8057V25.9393H86.6621V27.8793H93.5484V31.1831H82.9736Z" fill="#11253D"/>
<path d="M95.5449 31.1831V17.5865H101.653C103.142 17.5865 104.352 18.0355 105.291 18.9335C106.23 19.8315 106.695 20.9666 106.695 22.339C106.695 23.7114 106.23 24.8465 105.291 25.7445C104.352 26.6425 103.142 27.0914 101.653 27.0914H99.2249V31.1747H95.5449V31.1831ZM99.2334 23.8045H101.467C101.89 23.8045 102.262 23.6605 102.558 23.364C102.863 23.076 103.015 22.7287 103.015 22.3475C103.015 21.9663 102.863 21.6189 102.558 21.3309C102.254 21.0429 101.89 20.8904 101.467 20.8904H99.2334V23.8045Z" fill="#11253D"/>
<path d="M108.7 31.1831V17.5865H118.209V21.0852H112.389V31.1831H108.7Z" fill="#11253D"/>
<path d="M119.816 31.1831V17.5865H123.505V25.0668L129.325 17.5865H132.523V31.1831H128.835V23.7029L123.014 31.1831H119.816Z" fill="#11253D"/>
<path d="M134.224 31.1831L137.041 26.1342C136.601 25.9309 136.212 25.6428 135.873 25.2786C135.095 24.4992 134.706 23.4911 134.706 22.2458C134.706 20.9243 135.171 19.8145 136.102 18.925C137.032 18.0355 138.217 17.5865 139.655 17.5865H146.059V31.1831H142.37V26.9135H140.332L138.098 31.1831H134.224ZM139.849 23.6097H142.37V20.8904H139.849C139.426 20.8904 139.071 21.0175 138.8 21.2801C138.53 21.5427 138.394 21.8646 138.394 22.2543C138.394 22.644 138.53 22.9659 138.8 23.2285C139.08 23.4826 139.426 23.6097 139.849 23.6097Z" fill="#11253D"/>
<path d="M38.0352 13.8761V10.5723C38.1621 10.6231 38.2721 10.657 38.3651 10.6655C38.6274 10.7332 38.8981 10.7587 39.2027 10.7587C40.184 10.7587 40.8608 10.369 41.2415 9.5896L41.3345 9.39476L36.6816 0.364258H40.7593L43.238 5.99773H43.3141L45.4122 0.364258H49.4898L44.7354 10.4622C44.1517 11.6651 43.4749 12.58 42.6966 13.2069C41.9183 13.8338 40.9539 14.1472 39.7864 14.1472C39.2957 14.1472 38.8643 14.1049 38.509 14.0117L38.0352 13.8761Z" fill="#11253D"/>
<path d="M50.5049 13.9693V0.372681H54.1934V5.32845H59.1423V0.372681H62.8308V13.9693H59.1423V8.81867H54.1934V13.9693H50.5049Z" fill="#11253D"/>
<path d="M65.5967 13.9693V0.372681H69.2852V7.85293L75.1055 0.372681H78.3033V13.9693H74.6148V6.48903L68.7945 13.9693H65.5967Z" fill="#11253D"/>
<path d="M81.0791 13.9693V0.372681H87.094C88.5829 0.372681 89.7419 0.720009 90.5879 1.40619C91.4254 2.09237 91.8484 2.94798 91.8484 3.97302C91.8484 4.8964 91.5016 5.64189 90.8163 6.22642C90.5541 6.44667 90.2242 6.63304 89.8096 6.794C90.3172 6.9719 90.7656 7.21757 91.1717 7.51407C92.0769 8.21719 92.5337 9.10669 92.5337 10.191C92.5337 11.2669 92.0938 12.1649 91.214 12.8934C90.3341 13.6219 89.1244 13.9777 87.5847 13.9777H81.0791V13.9693ZM84.7676 5.61648H86.8064C87.1955 5.61648 87.5001 5.50635 87.7285 5.29456C87.9569 5.08278 88.0669 4.80322 88.0669 4.44743C88.0669 4.1001 87.9569 3.81207 87.7285 3.60029C87.5001 3.3885 87.1955 3.27837 86.8064 3.27837H84.7676V5.61648ZM84.7676 11.0636H87.2886C87.7116 11.0636 88.0669 10.9365 88.3376 10.6739C88.6083 10.4113 88.7437 10.0894 88.7437 9.69969C88.7437 9.31 88.6083 8.98809 88.3376 8.72548C88.0669 8.46286 87.7201 8.33579 87.2886 8.33579H84.7676V11.0636Z" fill="#11253D"/>
<path d="M94.4287 13.9693V0.372681H104.809V3.67653H98.1172V5.61648H103.261V8.72548H98.1172V10.6654H105.003V13.9693H94.4287Z" fill="#11253D"/>
<path d="M106.991 13.9693V0.372681H113.099C114.588 0.372681 115.798 0.821668 116.737 1.71964C117.676 2.6176 118.141 3.75277 118.141 5.12514C118.141 6.4975 117.676 7.63267 116.737 8.53064C115.798 9.42861 114.588 9.87759 113.099 9.87759H110.671V13.9608H106.991V13.9693ZM110.68 6.59069H112.913C113.336 6.59069 113.708 6.44667 114.004 6.15018C114.309 5.86215 114.461 5.51482 114.461 5.13361C114.461 4.7524 114.309 4.40507 114.004 4.11704C113.7 3.82902 113.336 3.67653 112.913 3.67653H110.68V6.59069Z" fill="#11253D"/>
<path d="M130.619 9.21687L132.853 11.7413C132.413 12.2496 131.905 12.6901 131.338 13.0629C130.07 13.927 128.606 14.3675 126.931 14.3675C124.774 14.3675 122.972 13.6728 121.525 12.2835C120.087 10.8942 119.359 9.19145 119.359 7.18373C119.359 5.17602 120.078 3.47327 121.525 2.08396C122.963 0.694653 124.765 0 126.931 0C128.564 0 130.019 0.44051 131.296 1.32153C131.863 1.71969 132.354 2.1602 132.751 2.62613L130.518 5.1506C130.222 4.82869 129.892 4.53219 129.528 4.27805C128.691 3.69352 127.819 3.4055 126.931 3.4055C125.873 3.4055 124.977 3.76977 124.241 4.50678C123.513 5.23532 123.149 6.13329 123.149 7.20068C123.149 8.26808 123.513 9.15757 124.241 9.89458C124.968 10.6231 125.865 10.9959 126.931 10.9959C127.811 10.9959 128.691 10.7078 129.57 10.1233C129.96 9.82681 130.315 9.53878 130.619 9.21687Z" fill="#11253D"/>
<path d="M134.46 13.9693V0.372681H138.148V7.85293L143.969 0.372681H147.167V13.9693H143.478V6.48903L137.658 13.9693H134.46Z" fill="#11253D"/>
<path d="M152.556 13.9693V3.67653H148.774V0.372681H160.026V3.67653H156.244V13.9693H152.556Z" fill="#11253D"/>
<path d="M161.642 13.9693V0.372681H172.022V3.67653H165.33V5.61648H170.474V8.72548H165.33V10.6654H172.216V13.9693H161.642Z" fill="#11253D"/>
<path d="M176.827 13.9693V3.67653H173.046V0.372681H184.297V3.67653H180.516V13.9693H176.827Z" fill="#11253D"/>
</svg>
