<svg width="148" height="27" viewBox="0 0 148 27" fill="none" xmlns="http://www.w3.org/2000/svg">
<g clip-path="url(#clip0)">
<path d="M16.3241 16.1341L13.5757 13.4177L16.3241 10.7835V5.35059L8.16206 13.4177L16.3241 21.4847V16.1341Z" fill="#0A0521"/>
<path d="M0 0V26.8354H27.1514V0H0ZM23.3202 23.0488H3.91446V3.8689H23.3202V23.0488Z" fill="#0A0521"/>
<path d="M33.8976 9.46646V7.2439C33.9809 7.2439 34.0642 7.32622 34.1474 7.32622C34.314 7.32622 34.4806 7.40853 34.7304 7.40853C35.3967 7.40853 35.8965 7.16158 36.1463 6.58536L36.2296 6.42073L32.9814 0.246948H35.8132L37.4789 4.11585H37.5622L38.9781 0.246948H41.8098L38.5616 7.16158C38.1452 7.98475 37.7288 8.64329 37.1458 9.05488C36.646 9.46646 35.9797 9.71341 35.1469 9.71341C34.8137 9.71341 34.4806 9.71341 34.2307 9.63109L33.8976 9.46646Z" fill="#0A0521"/>
<path d="M43.8087 9.54886V0.329346H46.3906V3.70435H49.8053V0.329346H52.3872V9.63118H49.8053V6.09154H46.3906V9.63118H43.8087V9.54886Z" fill="#0A0521"/>
<path d="M55.5521 9.54886V0.329346H58.1339V5.433L62.1317 0.329346H64.3804V9.63118H61.7985V4.4452L57.8008 9.54886H55.5521Z" fill="#0A0521"/>
<path d="M67.5453 9.54886V0.329346H71.7096C72.7091 0.329346 73.5419 0.576297 74.1249 1.0702C74.7079 1.5641 74.9578 2.14032 74.9578 2.79886C74.9578 3.45739 74.7079 3.9513 74.2082 4.36288C74.0416 4.52752 73.7918 4.60983 73.5419 4.77447C73.8751 4.9391 74.2082 5.02142 74.4581 5.26837C75.1244 5.76227 75.3742 6.33849 75.3742 7.07935C75.3742 7.8202 75.0411 8.39642 74.4581 8.89032C73.8751 9.38422 73.0422 9.63118 71.9595 9.63118H67.5453V9.54886ZM70.1272 3.86898H71.5431C71.7929 3.86898 72.0428 3.78666 72.2093 3.62203C72.3759 3.45739 72.4592 3.29276 72.4592 3.04581C72.4592 2.79886 72.2926 2.63422 72.1261 2.46959C71.9595 2.30496 71.7929 2.22264 71.4598 2.22264H70.0439V3.86898H70.1272ZM70.1272 7.57325H71.8762C72.2093 7.57325 72.3759 7.49093 72.6258 7.3263C72.7923 7.16166 72.8756 6.91471 72.8756 6.66776C72.8756 6.42081 72.7923 6.17386 72.6258 6.00922C72.3759 5.84459 72.1261 5.76227 71.8762 5.76227H70.1272V7.57325Z" fill="#0A0521"/>
<path d="M78.0394 9.54886V0.329346H85.202V2.55191H80.538V3.86898H84.1193V6.00922H80.538V7.3263H85.2853V9.54886H78.0394Z" fill="#0A0521"/>
<path d="M88.0338 9.54886V0.329346H92.2814C93.2808 0.329346 94.1137 0.658614 94.78 1.23483C95.4463 1.81105 95.7794 2.63422 95.7794 3.53971C95.7794 4.4452 95.4463 5.26837 94.78 5.84459C94.1137 6.42081 93.2808 6.75008 92.2814 6.75008H90.6157V9.54886H88.0338ZM90.6157 4.52752H92.1981C92.5312 4.52752 92.7811 4.4452 92.9477 4.19825C93.1975 4.03361 93.2808 3.78666 93.2808 3.53971C93.2808 3.29276 93.1975 3.04581 92.9477 2.88117C92.6978 2.71654 92.4479 2.55191 92.1981 2.55191H90.6157V4.52752Z" fill="#0A0521"/>
<path d="M105.69 6.33845L107.273 8.06711C106.94 8.39638 106.607 8.72565 106.19 8.9726C105.274 9.54882 104.275 9.87809 103.109 9.87809C101.609 9.87809 100.36 9.38419 99.3607 8.4787C98.3613 7.49089 97.8616 6.33845 97.8616 5.02138C97.8616 3.70431 98.3613 2.46955 99.3607 1.56406C100.36 0.576258 101.609 0.164673 103.109 0.164673C104.275 0.164673 105.274 0.493941 106.107 1.07016C106.523 1.31711 106.857 1.64638 107.106 1.97565L105.524 3.70431C105.357 3.45736 105.107 3.29272 104.858 3.12809C104.275 2.7165 103.692 2.55187 103.025 2.55187C102.276 2.55187 101.693 2.79882 101.193 3.29272C100.693 3.78662 100.443 4.36284 100.443 5.1037C100.443 5.84455 100.693 6.42077 101.193 6.91467C101.693 7.40858 102.276 7.65553 103.025 7.65553C103.608 7.65553 104.275 7.49089 104.858 7.07931C105.191 6.75004 105.441 6.50309 105.69 6.33845Z" fill="#0A0521"/>
<path d="M109.605 9.54886V0.329346H112.187V5.433L116.185 0.329346H118.433V9.63118H115.851V4.4452L111.854 9.54886H109.605Z" fill="#0A0521"/>
<path d="M123.43 9.54886V2.55191H120.849V0.329346H128.594V2.55191H126.012V9.54886H123.43Z" fill="#0A0521"/>
<path d="M131.01 9.54886V0.329346H138.172V2.55191H133.508V3.86898H137.089V6.00922H133.508V7.3263H138.255V9.54886H131.01Z" fill="#0A0521"/>
<path d="M142.753 9.54886V2.55191H140.171V0.329346H147.917V2.55191H145.335V9.54886H142.753Z" fill="#0A0521"/>
<path d="M44.3917 21.5672L46.7237 24.2013C46.224 24.6952 45.7243 25.1891 45.1412 25.6007C43.8087 26.5062 42.2262 27.0001 40.4772 27.0001C38.1452 27.0001 36.2296 26.2592 34.7304 24.7775C33.2313 23.2958 32.3984 21.5672 32.3984 19.4269C32.3984 17.2867 33.148 15.558 34.7304 14.0763C36.2296 12.5946 38.1452 11.8538 40.4772 11.8538C42.2262 11.8538 43.7254 12.3477 45.1412 13.2532C45.7243 13.6647 46.224 14.1586 46.7237 14.6525L44.3084 17.2867C43.9752 16.9574 43.6421 16.6282 43.2257 16.3812C42.3095 15.805 41.3934 15.4757 40.4772 15.4757C39.3112 15.4757 38.395 15.8873 37.6455 16.6282C36.8959 17.369 36.4795 18.3568 36.4795 19.4269C36.4795 20.5794 36.8959 21.4849 37.6455 22.2257C38.395 22.9666 39.3945 23.3782 40.4772 23.3782C41.3934 23.3782 42.3095 23.0489 43.3089 22.4727C43.7254 22.2257 44.1418 21.8964 44.3917 21.5672Z" fill="#0A0521"/>
<path d="M48.4727 26.5885V12.3477H52.3872V20.1678L58.5504 12.3477H61.9651V26.5885H58.0506V18.7684L51.8874 26.5885H48.4727Z" fill="#0A0521"/>
<path d="M64.9634 26.5885V12.3477H68.8779V17.5336H74.1249V12.3477H78.0394V26.5885H74.1249V21.1556H68.8779V26.5885H64.9634Z" fill="#0A0521"/>
<path d="M80.9544 26.5885V12.3477H91.9482V15.805H84.8689V17.8629H90.3658V21.1556H84.8689V23.2135H92.1981V26.6708H80.9544V26.5885Z" fill="#0A0521"/>
<path d="M94.3635 26.5885V12.3477H100.86C102.442 12.3477 103.692 12.8416 104.691 13.747C105.69 14.6525 106.19 15.8873 106.19 17.2867C106.19 18.6861 105.69 19.9208 104.691 20.8263C103.692 21.7318 102.442 22.2257 100.86 22.2257H98.278V26.5062H94.3635V26.5885ZM98.278 18.8507H100.61C101.026 18.8507 101.443 18.6861 101.776 18.3568C102.109 18.0275 102.276 17.6983 102.276 17.2867C102.276 16.8751 102.109 16.5458 101.776 16.2166C101.443 15.8873 101.026 15.7227 100.61 15.7227H98.278V18.8507Z" fill="#0A0521"/>
<path d="M108.356 26.5885V12.3477H118.433V16.0519H112.27V26.6708H108.356V26.5885Z" fill="#0A0521"/>
<path d="M120.099 26.5885V12.3477H124.013V20.1678L130.177 12.3477H133.591V26.5885H129.677V18.7684L123.514 26.5885H120.099Z" fill="#0A0521"/>
<path d="M135.424 26.5885L138.422 21.3202C137.922 21.0733 137.506 20.8263 137.173 20.4147C136.34 19.5916 135.923 18.5214 135.923 17.2044C135.923 15.805 136.423 14.6525 137.423 13.747C138.422 12.8416 139.671 12.3477 141.171 12.3477H148V26.5885H144.086V22.1434H141.92L139.588 26.5885H135.424ZM141.42 18.6038H144.086V15.7227H141.42C141.004 15.7227 140.588 15.8873 140.338 16.1342C140.088 16.3812 139.921 16.7105 139.921 17.122C139.921 17.5336 140.088 17.8629 140.338 18.1099C140.588 18.5214 140.921 18.6038 141.42 18.6038Z" fill="#0A0521"/>
</g>
<defs>
<clipPath id="clip0">
<rect width="148" height="27" fill="white"/>
</clipPath>
</defs>
</svg>
