<svg width="185" height="32" viewBox="0 0 185 32" fill="none" xmlns="http://www.w3.org/2000/svg">
<path d="M18.5018 19.1471L15.4224 16.0635L18.5018 12.9799V6.81274L9.26367 16.0635L18.5018 25.3143V19.1471Z" fill="#FF0040"/>
<path d="M0 0.628906V31.4986H30.836V0.628906H0ZM26.4284 27.085H4.40756V5.03403H26.4284V27.085Z" fill="#FF0040"/>
<path d="M48.5676 26.6357L50.801 29.1602C50.3611 29.6685 49.8535 30.109 49.2867 30.4817C48.0177 31.3458 46.5542 31.7863 44.8791 31.7863C42.7219 31.7863 40.92 31.0916 39.4733 29.7023C38.0352 28.313 37.3076 26.6103 37.3076 24.6026C37.3076 22.5949 38.0267 20.8921 39.4733 19.5028C40.9115 18.1135 42.7134 17.4188 44.8791 17.4188C46.5119 17.4188 47.967 17.8593 49.2444 18.7404C49.8112 19.1385 50.3019 19.579 50.6995 20.045L48.4661 22.5694C48.17 22.2475 47.8401 21.951 47.4763 21.6969C46.6388 21.1124 45.7674 20.8243 44.8791 20.8243C43.8217 20.8243 42.9249 21.1886 42.1889 21.9256C41.4614 22.6541 41.0976 23.5521 41.0976 24.6195C41.0976 25.6869 41.4614 26.5764 42.1889 27.3134C42.9165 28.042 43.8132 28.4147 44.8791 28.4147C45.759 28.4147 46.6388 28.1267 47.5186 27.5421C47.9078 27.2541 48.2546 26.9661 48.5676 26.6357Z" fill="#11253D"/>
<path d="M52.4082 31.3967V17.8002H56.0967V25.2804L61.917 17.8002H65.1148V31.3967H61.4264V23.9165L55.606 31.3967H52.4082Z" fill="#11253D"/>
<path d="M67.8809 31.3967V17.8002H71.5693V22.7559H76.5183V17.8002H80.2068V31.3967H76.5183V26.2461H71.5693V31.3967H67.8809Z" fill="#11253D"/>
<path d="M82.9736 31.3967V17.8002H93.3538V21.104H86.6621V23.044H91.8057V26.153H86.6621V28.0929H93.5484V31.3967H82.9736Z" fill="#11253D"/>
<path d="M95.5449 31.3967V17.8002H101.653C103.142 17.8002 104.352 18.2492 105.291 19.1471C106.23 20.0451 106.695 21.1803 106.695 22.5526C106.695 23.925 106.23 25.0601 105.291 25.9581C104.352 26.8561 103.142 27.3051 101.653 27.3051H99.2249V31.3883H95.5449V31.3967ZM99.2334 24.0182H101.467C101.89 24.0182 102.262 23.8742 102.558 23.5777C102.863 23.2896 103.015 22.9423 103.015 22.5611C103.015 22.1799 102.863 21.8326 102.558 21.5445C102.254 21.2565 101.89 21.104 101.467 21.104H99.2334V24.0182Z" fill="#11253D"/>
<path d="M108.7 31.3967V17.8002H118.209V21.2988H112.389V31.3967H108.7Z" fill="#11253D"/>
<path d="M119.816 31.3967V17.8002H123.505V25.2804L129.325 17.8002H132.523V31.3967H128.835V23.9165L123.014 31.3967H119.816Z" fill="#11253D"/>
<path d="M134.224 31.3967L137.041 26.3478C136.601 26.1445 136.212 25.8565 135.873 25.4922C135.095 24.7128 134.706 23.7047 134.706 22.4594C134.706 21.1379 135.171 20.0281 136.102 19.1387C137.032 18.2492 138.217 17.8002 139.655 17.8002H146.059V31.3967H142.37V27.1272H140.332L138.098 31.3967H134.224ZM139.849 23.8233H142.37V21.104H139.849C139.426 21.104 139.071 21.2311 138.8 21.4937C138.53 21.7563 138.394 22.0782 138.394 22.4679C138.394 22.8576 138.53 23.1795 138.8 23.4421C139.08 23.6962 139.426 23.8233 139.849 23.8233Z" fill="#11253D"/>
<path d="M38.0352 14.0898V10.7859C38.1621 10.8367 38.2721 10.8706 38.3651 10.8791C38.6274 10.9469 38.8981 10.9723 39.2027 10.9723C40.184 10.9723 40.8608 10.5826 41.2415 9.80323L41.3345 9.60838L36.6816 0.577881H40.7593L43.238 6.21135H43.3141L45.4122 0.577881H49.4898L44.7354 10.6758C44.1517 11.8787 43.4749 12.7936 42.6966 13.4205C41.9183 14.0474 40.9539 14.3608 39.7864 14.3608C39.2957 14.3608 38.8643 14.3185 38.509 14.2253L38.0352 14.0898Z" fill="#11253D"/>
<path d="M50.5049 14.1829V0.586304H54.1934V5.54208H59.1423V0.586304H62.8308V14.1829H59.1423V9.03229H54.1934V14.1829H50.5049Z" fill="#11253D"/>
<path d="M65.5967 14.1829V0.586304H69.2852V8.06655L75.1055 0.586304H78.3033V14.1829H74.6148V6.70266L68.7945 14.1829H65.5967Z" fill="#11253D"/>
<path d="M81.0791 14.1829V0.586304H87.094C88.5829 0.586304 89.7419 0.933632 90.5879 1.61981C91.4254 2.306 91.8484 3.16161 91.8484 4.18665C91.8484 5.11003 91.5016 5.85551 90.8163 6.44004C90.5541 6.6603 90.2242 6.84666 89.8096 7.00762C90.3172 7.18552 90.7656 7.43119 91.1717 7.72769C92.0769 8.43081 92.5337 9.32031 92.5337 10.4047C92.5337 11.4805 92.0938 12.3785 91.214 13.107C90.3341 13.8356 89.1244 14.1914 87.5847 14.1914H81.0791V14.1829ZM84.7676 5.8301H86.8064C87.1955 5.8301 87.5001 5.71997 87.7285 5.50819C87.9569 5.2964 88.0669 5.01685 88.0669 4.66105C88.0669 4.31372 87.9569 4.02569 87.7285 3.81391C87.5001 3.60212 87.1955 3.49199 86.8064 3.49199H84.7676V5.8301ZM84.7676 11.2772H87.2886C87.7116 11.2772 88.0669 11.1501 88.3376 10.8875C88.6083 10.6249 88.7437 10.303 88.7437 9.91331C88.7437 9.52363 88.6083 9.20171 88.3376 8.9391C88.0669 8.67649 87.7201 8.54942 87.2886 8.54942H84.7676V11.2772Z" fill="#11253D"/>
<path d="M94.4287 14.1829V0.586304H104.809V3.89015H98.1172V5.8301H103.261V8.93911H98.1172V10.8791H105.003V14.1829H94.4287Z" fill="#11253D"/>
<path d="M106.991 14.1829V0.586304H113.099C114.588 0.586304 115.798 1.03529 116.737 1.93326C117.676 2.83123 118.141 3.96639 118.141 5.33876C118.141 6.71113 117.676 7.8463 116.737 8.74427C115.798 9.64223 114.588 10.0912 113.099 10.0912H110.671V14.1744H106.991V14.1829ZM110.68 6.80431H112.913C113.336 6.80431 113.708 6.6603 114.004 6.3638C114.309 6.07577 114.461 5.72845 114.461 5.34723C114.461 4.96602 114.309 4.6187 114.004 4.33067C113.7 4.04264 113.336 3.89015 112.913 3.89015H110.68V6.80431Z" fill="#11253D"/>
<path d="M130.619 9.43049L132.853 11.955C132.413 12.4633 131.905 12.9038 131.338 13.2765C130.07 14.1406 128.606 14.5811 126.931 14.5811C124.774 14.5811 122.972 13.8864 121.525 12.4971C120.087 11.1078 119.359 9.40508 119.359 7.39736C119.359 5.38964 120.078 3.68689 121.525 2.29758C122.963 0.908276 124.765 0.213623 126.931 0.213623C128.564 0.213623 130.019 0.654133 131.296 1.53516C131.863 1.93331 132.354 2.37383 132.751 2.83975L130.518 5.36422C130.222 5.04231 129.892 4.74581 129.528 4.49167C128.691 3.90715 127.819 3.61912 126.931 3.61912C125.873 3.61912 124.977 3.98339 124.241 4.7204C123.513 5.44894 123.149 6.34691 123.149 7.4143C123.149 8.4817 123.513 9.3712 124.241 10.1082C124.968 10.8367 125.865 11.2095 126.931 11.2095C127.811 11.2095 128.691 10.9215 129.57 10.3369C129.96 10.0404 130.315 9.75241 130.619 9.43049Z" fill="#11253D"/>
<path d="M134.46 14.1829V0.586304H138.148V8.06655L143.969 0.586304H147.167V14.1829H143.478V6.70266L137.658 14.1829H134.46Z" fill="#11253D"/>
<path d="M152.556 14.1829V3.89015H148.774V0.586304H160.026V3.89015H156.244V14.1829H152.556Z" fill="#11253D"/>
<path d="M161.642 14.1829V0.586304H172.022V3.89015H165.33V5.8301H170.474V8.93911H165.33V10.8791H172.216V14.1829H161.642Z" fill="#11253D"/>
<path d="M176.827 14.1829V3.89015H173.046V0.586304H184.297V3.89015H180.516V14.1829H176.827Z" fill="#11253D"/>
</svg>
