<svg width="16" height="16" viewBox="0 0 16 16" fill="none" xmlns="http://www.w3.org/2000/svg">
<path d="M6.92958 0.0587845C2.96338 0.592287 0 3.98491 0 7.99746C0 12.4308 3.56808 16 8 16C12.4319 16 16 12.4308 16 7.99746C16 3.95486 13.0254 0.573502 9.00282 0.0512705C8.45446 -0.020113 7.48545 -0.0163574 6.92958 0.0587845ZM12.2028 4.54472C12.7437 4.81523 12.9615 5.48398 12.6836 6.025C12.5446 6.29926 7.45164 11.3788 7.21127 11.4878C7.09108 11.5441 6.96338 11.5667 6.76056 11.5667C6.25728 11.5667 6.24977 11.5592 4.70986 10.015C3.45164 8.75263 3.34648 8.63991 3.27136 8.43703C3.17746 8.17404 3.16995 7.92232 3.25634 7.65556C3.34648 7.37379 3.65822 7.05819 3.93991 6.96426C4.20282 6.87785 4.57089 6.9004 4.80751 7.02062C4.91643 7.07322 5.27324 7.40008 5.80282 7.92607C6.5615 8.67749 6.64413 8.74887 6.76056 8.74887C6.88075 8.74887 7.02723 8.60986 8.97653 6.66746C10.5615 5.08198 11.1023 4.5635 11.23 4.50715C11.3502 4.45079 11.4779 4.42825 11.6845 4.42825C11.9286 4.42825 12.0038 4.44328 12.2028 4.54472Z" fill="#11253D"/>
</svg>
